<?xml version="1.0" encoding="utf-8"?>
<!DOCTYPE svg PUBLIC "-//W3C//DTD SVG 1.1//EN" "http://www.w3.org/Graphics/SVG/1.1/DTD/svg11.dtd">
<svg version="1.1" xmlns="http://www.w3.org/2000/svg" xmlns:xlink="http://www.w3.org/1999/xlink" x="0px" y="0px"
	 width="400px" height="100px" viewBox="0 0 400 100" style="enable-background:new 0 0 400 100;" xml:space="preserve">
<g>
	<g>
		<linearGradient id="SVGID_1_" gradientUnits="userSpaceOnUse" x1="88.4395" y1="27.7612" x2="52.9268" y2="4.6367">
			<stop  offset="0" style="stop-color:#80C3E6"/>
			<stop  offset="1" style="stop-color:#3380C2"/>
		</linearGradient>
		<polygon style="fill:url(#SVGID_1_);" points="76.65,41.844 96.557,9.995 48.675,9.995 42.058,20.609 		"/>
		<polygon style="opacity:0.15;" points="42.062,20.609 45.451,15.16 76.654,41.844 		"/>
		<linearGradient id="SVGID_2_" gradientUnits="userSpaceOnUse" x1="94.6733" y1="81.165" x2="68.1259" y2="63.6337">
			<stop  offset="0" style="stop-color:#F38649"/>
			<stop  offset="0.1849" style="stop-color:#F28147"/>
			<stop  offset="0.4091" style="stop-color:#EF7242"/>
			<stop  offset="0.6537" style="stop-color:#EA5A3A"/>
			<stop  offset="0.911" style="stop-color:#E4382E"/>
			<stop  offset="1" style="stop-color:#E12A29"/>
		</linearGradient>
		<polygon style="fill:url(#SVGID_2_);" points="87.179,99.588 87.179,51.707 76.85,45.25 55.129,79.561 		"/>
		<polygon style="opacity:0.15;" points="55.129,79.561 60.495,82.91 76.851,45.25 		"/>
		<linearGradient id="SVGID_3_" gradientUnits="userSpaceOnUse" x1="7.1973" y1="43.7158" x2="57.9849" y2="11.9802">
			<stop  offset="0" style="stop-color:#42AB4A"/>
			<stop  offset="1" style="stop-color:#ADD155"/>
		</linearGradient>
		<polygon style="fill:url(#SVGID_3_);" points="10.058,0.413 10.058,48.294 21.138,54.75 76.642,41.838 		"/>
		<linearGradient id="SVGID_4_" gradientUnits="userSpaceOnUse" x1="18.2861" y1="100.5156" x2="59.5694" y2="34.4486">
			<stop  offset="0" style="stop-color:#42AB4A"/>
			<stop  offset="1" style="stop-color:#ADD155"/>
		</linearGradient>
		<polygon style="fill:url(#SVGID_4_);" points="20.906,58.4 1,89.713 48.881,89.713 76.857,45.25 		"/>
	</g>
	<g>
		<path d="M105.716,72.564h6.201l3.171-39.089h-6.342v-5.463h14.092l12.753,30.505c0.775,2.057,1.127,3.619,1.127,3.619h0.141
			c0,0,0.352-1.562,1.127-3.619l12.753-30.505h14.092v5.463h-6.342l3.17,39.089h6.201v5.533h-19.165v-5.533h5.989l-2.254-29.938
			c-0.07-1.561,0.211-4.114,0.211-4.114h-0.211c0,0-0.564,2.413-1.127,3.831L139.89,68.662h-6.2l-11.415-26.319
			c-0.563-1.418-1.127-3.831-1.127-3.831h-0.212c0,0,0.283,2.554,0.212,4.114l-2.255,29.938h5.989v5.533h-19.165V72.564z"/>
		<path d="M197.319,27.162c14.375,0,25.577,11.138,25.577,25.54c0,14.754-11.201,26.248-25.577,26.248
			c-14.443,0-25.576-11.494-25.576-26.248C171.743,38.299,182.875,27.162,197.319,27.162z M197.319,72.637
			c10.077,0,18.249-8.656,18.249-19.936c0-10.926-8.172-19.296-18.249-19.296c-10.146,0-18.318,8.371-18.318,19.296
			C179,63.98,187.173,72.637,197.319,72.637z"/>
		<path d="M227.587,72.564h6.201V33.476h-6.201v-5.463h21.209c4.156,0,7.256,0.213,10.568,1.206
			c9.512,2.98,15.713,11.635,15.713,23.836c0,12.131-5.99,20.574-15.713,23.695c-3.242,1.064-6.553,1.348-10.498,1.348h-21.279
			V72.564z M248.442,72.281c3.242,0,5.92-0.285,8.455-1.277c6.693-2.342,10.852-8.797,10.852-17.949
			c0-9.222-4.158-15.677-10.779-18.089c-2.748-0.993-5.285-1.135-8.527-1.135h-7.609v38.451H248.442z"/>
		<path d="M277.558,72.564h4.65l12.824-19.793l-12.613-19.296h-4.58v-5.463h15.752v5.463h-3.703l8.244,13.125
			c0.775,1.064,1.268,1.986,1.268,1.986h0.143c0,0,0.422-0.922,1.195-1.986l7.963-13.125h-3.562v-5.463h15.26v5.463h-4.65
			L302.853,53.41l12.684,19.154h4.721v5.533h-15.752v-5.533h3.631l-8.314-13.055c-0.775-1.135-1.268-2.057-1.268-2.057h-0.141
			c-0.07,0-0.422,0.922-1.127,2.057l-8.033,13.055h3.633v5.533h-15.328V72.564z"/>
	</g>
</g>
<g>
</g>
<g>
	<path d="M326.795,85.456V50.301c0-0.988-0.528-1.448-1.449-1.448h-4.081v-4.938h7.372c2.963,0,4.082,1.317,4.082,3.29v0.265
		c0,1.053-0.133,1.909-0.133,1.909h0.133c0,0,2.765-6.254,11.19-6.254c8.955,0,14.617,7.109,14.617,17.446
		c0,10.601-6.386,17.446-15.077,17.446c-7.307,0-10.335-5.664-10.335-5.664h-0.133c0,0,0.197,1.188,0.197,2.899v10.203h5.267v4.938
		h-16.854v-4.938H326.795z M342.462,72.484c5.267,0,9.612-4.276,9.612-11.85c0-7.239-3.886-11.913-9.481-11.913
		c-4.938,0-9.544,3.487-9.544,11.98C333.049,66.627,336.273,72.484,342.462,72.484z"/>
	<path d="M379.892,43.125c9.94,0,17.973,7.308,17.973,17.379c0,10.139-8.032,17.514-17.973,17.514
		c-9.942,0-17.974-7.375-17.974-17.514C361.918,50.433,369.949,43.125,379.892,43.125z M379.892,72.484
		c6.255,0,11.455-5.001,11.455-11.98c0-6.911-5.2-11.849-11.455-11.849c-6.319,0-11.455,4.938-11.455,11.849
		C368.437,67.483,373.572,72.484,379.892,72.484z"/>
</g>
</svg>
