<?xml version="1.0" standalone="no"?>
<!DOCTYPE svg PUBLIC "-//W3C//DTD SVG 1.1//EN" "http://www.w3.org/Graphics/SVG/1.1/DTD/svg11.dtd">
<svg width="100%" height="100%" viewBox="0 0 400 100" version="1.1" xmlns="http://www.w3.org/2000/svg" xmlns:xlink="http://www.w3.org/1999/xlink" xml:space="preserve" style="fill-rule:evenodd;clip-rule:evenodd;stroke-linejoin:round;stroke-miterlimit:1.41421;">
    <g>
        <g>
            <path d="M76.65,41.844L96.557,9.995L48.675,9.995L42.058,20.609L76.65,41.844Z" style="fill:url(#tag1);fill-rule:nonzero;"/>
            <path d="M42.062,20.609L45.451,15.16L76.654,41.844L42.062,20.609Z" style="fill:black;fill-opacity:0.15;fill-rule:nonzero;"/>
            <path d="M87.179,99.588L87.179,51.707L76.85,45.25L55.129,79.561L87.179,99.588Z" style="fill:url(#tag2);fill-rule:nonzero;"/>
            <path d="M55.129,79.561L60.495,82.91L76.851,45.25L55.129,79.561Z" style="fill:black;fill-opacity:0.15;fill-rule:nonzero;"/>
            <path d="M10.058,0.413L10.058,48.294L21.138,54.75L76.642,41.838L10.058,0.413Z" style="fill:url(#tag3);fill-rule:nonzero;"/>
            <path d="M20.906,58.4L1,89.713L48.881,89.713L76.857,45.25L20.906,58.4Z" style="fill:url(#tag4);fill-rule:nonzero;"/>
        </g>
        <g>
            <path d="M105.716,72.564L111.917,72.564L115.088,33.475L108.746,33.475L108.746,28.012L122.838,28.012L135.591,58.517C136.366,60.574 136.718,62.136 136.718,62.136L136.859,62.136C136.859,62.136 137.211,60.574 137.986,58.517L150.739,28.012L164.831,28.012L164.831,33.475L158.489,33.475L161.659,72.564L167.86,72.564L167.86,78.097L148.695,78.097L148.695,72.564L154.684,72.564L152.43,42.626C152.36,41.065 152.641,38.512 152.641,38.512L152.43,38.512C152.43,38.512 151.866,40.925 151.303,42.343L139.89,68.662L133.69,68.662L122.275,42.343C121.712,40.925 121.148,38.512 121.148,38.512L120.936,38.512C120.936,38.512 121.219,41.066 121.148,42.626L118.893,72.564L124.882,72.564L124.882,78.097L105.717,78.097L105.717,72.564L105.716,72.564Z" style="fill:white;fill-rule:nonzero;stroke-width:1px;stroke:white;"/>
            <path d="M197.319,27.162C211.694,27.162 222.896,38.3 222.896,52.702C222.896,67.456 211.695,78.95 197.319,78.95C182.876,78.95 171.743,67.456 171.743,52.702C171.743,38.299 182.875,27.162 197.319,27.162ZM197.319,72.637C207.396,72.637 215.568,63.981 215.568,52.701C215.568,41.775 207.396,33.405 197.319,33.405C187.173,33.405 179.001,41.776 179.001,52.701C179,63.98 187.173,72.637 197.319,72.637Z" style="fill:white;fill-rule:nonzero;stroke-width:1px;stroke:white;"/>
            <path d="M227.587,72.564L233.788,72.564L233.788,33.476L227.587,33.476L227.587,28.013L248.796,28.013C252.952,28.013 256.052,28.226 259.364,29.219C268.876,32.199 275.077,40.854 275.077,53.055C275.077,65.186 269.087,73.629 259.364,76.75C256.122,77.814 252.811,78.098 248.866,78.098L227.587,78.098L227.587,72.564ZM248.442,72.281C251.684,72.281 254.362,71.996 256.897,71.004C263.59,68.662 267.749,62.207 267.749,53.055C267.749,43.833 263.591,37.378 256.97,34.966C254.222,33.973 251.685,33.831 248.443,33.831L240.834,33.831L240.834,72.282L248.442,72.282L248.442,72.281Z" style="fill:white;fill-rule:nonzero;stroke-width:1px;stroke:white;"/>
            <path d="M277.558,72.564L282.208,72.564L295.032,52.771L282.419,33.475L277.839,33.475L277.839,28.012L293.591,28.012L293.591,33.475L289.888,33.475L298.132,46.6C298.907,47.664 299.4,48.586 299.4,48.586L299.543,48.586C299.543,48.586 299.965,47.664 300.738,46.6L308.701,33.475L305.139,33.475L305.139,28.012L320.399,28.012L320.399,33.475L315.749,33.475L302.853,53.41L315.537,72.564L320.258,72.564L320.258,78.097L304.506,78.097L304.506,72.564L308.137,72.564L299.823,59.509C299.048,58.374 298.555,57.452 298.555,57.452L298.414,57.452C298.344,57.452 297.992,58.374 297.287,59.509L289.254,72.564L292.887,72.564L292.887,78.097L277.559,78.097L277.559,72.564L277.558,72.564Z" style="fill:white;fill-rule:nonzero;stroke-width:1px;stroke:white;"/>
        </g>
    </g>
    <g>
        <path d="M326.795,85.456L326.795,50.301C326.795,49.313 326.267,48.853 325.346,48.853L321.265,48.853L321.265,43.915L328.637,43.915C331.6,43.915 332.719,45.232 332.719,47.205L332.719,47.47C332.719,48.523 332.586,49.379 332.586,49.379L332.719,49.379C332.719,49.379 335.484,43.125 343.909,43.125C352.864,43.125 358.526,50.234 358.526,60.571C358.526,71.172 352.14,78.017 343.449,78.017C336.142,78.017 333.114,72.353 333.114,72.353L332.981,72.353C332.981,72.353 333.178,73.541 333.178,75.252L333.178,85.455L338.445,85.455L338.445,90.393L321.591,90.393L321.591,85.455L326.795,85.455L326.795,85.456ZM342.462,72.484C347.729,72.484 352.074,68.208 352.074,60.634C352.074,53.395 348.188,48.721 342.593,48.721C337.655,48.721 333.049,52.208 333.049,60.701C333.049,66.627 336.273,72.484 342.462,72.484Z" style="fill:white;fill-rule:nonzero;stroke-width:1px;stroke:white;"/>
        <path d="M379.892,43.125C389.832,43.125 397.865,50.433 397.865,60.504C397.865,70.643 389.833,78.018 379.892,78.018C369.95,78.018 361.918,70.643 361.918,60.504C361.918,50.433 369.949,43.125 379.892,43.125ZM379.892,72.484C386.147,72.484 391.347,67.483 391.347,60.504C391.347,53.593 386.147,48.655 379.892,48.655C373.573,48.655 368.437,53.593 368.437,60.504C368.437,67.483 373.572,72.484 379.892,72.484Z" style="fill:white;fill-rule:nonzero;stroke-width:1px;stroke:white;"/>
    </g>
    <defs>
        <linearGradient id="tag1" x1="0" y1="0" x2="1" y2="0" gradientUnits="userSpaceOnUse" gradientTransform="matrix(-35.5127,-23.1245,23.1245,-35.5127,88.4395,27.7612)"><stop offset="0%" style="stop-color:rgb(128,195,230);stop-opacity:1"/><stop offset="100%" style="stop-color:rgb(51,128,194);stop-opacity:1"/></linearGradient>
        <linearGradient id="tag2" x1="0" y1="0" x2="1" y2="0" gradientUnits="userSpaceOnUse" gradientTransform="matrix(-26.5474,-17.5313,17.5313,-26.5474,94.6733,81.165)"><stop offset="0%" style="stop-color:rgb(243,134,73);stop-opacity:1"/><stop offset="18%" style="stop-color:rgb(242,129,71);stop-opacity:1"/><stop offset="40%" style="stop-color:rgb(239,114,66);stop-opacity:1"/><stop offset="65%" style="stop-color:rgb(234,90,58);stop-opacity:1"/><stop offset="91%" style="stop-color:rgb(228,56,46);stop-opacity:1"/><stop offset="100%" style="stop-color:rgb(225,42,41);stop-opacity:1"/></linearGradient>
        <linearGradient id="tag3" x1="0" y1="0" x2="1" y2="0" gradientUnits="userSpaceOnUse" gradientTransform="matrix(50.7876,-31.7356,31.7356,50.7876,7.1973,43.7158)"><stop offset="0%" style="stop-color:rgb(66,171,74);stop-opacity:1"/><stop offset="100%" style="stop-color:rgb(173,209,85);stop-opacity:1"/></linearGradient>
        <linearGradient id="tag4" x1="0" y1="0" x2="1" y2="0" gradientUnits="userSpaceOnUse" gradientTransform="matrix(41.2833,-66.067,66.067,41.2833,18.2861,100.516)"><stop offset="0%" style="stop-color:rgb(66,171,74);stop-opacity:1"/><stop offset="100%" style="stop-color:rgb(173,209,85);stop-opacity:1"/></linearGradient>
    </defs>
</svg>
