<?xml version="1.0" standalone="no"?>
<!DOCTYPE svg PUBLIC "-//W3C//DTD SVG 1.1//EN" "http://www.w3.org/Graphics/SVG/1.1/DTD/svg11.dtd">
<svg width="100%" height="100%" viewBox="0 0 136 42" version="1.1" xmlns="http://www.w3.org/2000/svg" xmlns:xlink="http://www.w3.org/1999/xlink" xml:space="preserve" style="fill-rule:evenodd;clip-rule:evenodd;stroke-linejoin:round;stroke-miterlimit:1.41421;">
    <g id="Layer_1">
        <g>
            <g>
                <path d="M27.4345,18.3052L34.0115,7.78278L18.192,7.78278L16.0058,11.2895L27.4345,18.3052Z" style="fill:url(#tag1);fill-rule:nonzero;"/>
                <path d="M16.0071,11.2895L17.1268,9.48922L27.4358,18.3052L16.0071,11.2895Z" style="fill:black;fill-opacity:0.15;fill-rule:nonzero;"/>
                <path d="M30.9131,37.383L30.9131,21.5638L27.5006,19.4305L20.3243,30.7663L30.9131,37.383Z" style="fill:url(#tag2);fill-rule:nonzero;"/>
                <path d="M20.3243,30.7663L22.0971,31.8728L27.5009,19.4305L20.3243,30.7663Z" style="fill:black;fill-opacity:0.15;fill-rule:nonzero;"/>
                <path d="M5.4335,4.61703L5.4335,20.4362L9.09417,22.5692L27.4319,18.3032L5.4335,4.61703Z" style="fill:url(#tag3);fill-rule:nonzero;"/>
                <path d="M9.01752,23.7751L2.44088,34.1204L18.26,34.1204L27.5029,19.4305L9.01752,23.7751Z" style="fill:url(#tag4);fill-rule:nonzero;"/>
            </g>
            <g>
                <path d="M37.0375,28.4546L39.0862,28.4546L40.1338,15.5402L38.0385,15.5402L38.0385,13.7353L42.6943,13.7353L46.9077,23.8137C47.1638,24.4933 47.2801,25.0094 47.2801,25.0094L47.3267,25.0094C47.3267,25.0094 47.4429,24.4933 47.699,23.8137L51.9124,13.7353L56.5682,13.7353L56.5682,15.5402L54.4729,15.5402L55.5202,28.4546L57.5689,28.4546L57.5689,30.2827L51.2371,30.2827L51.2371,28.4546L53.2158,28.4546L52.4711,18.5636C52.448,18.0478 52.5408,17.2044 52.5408,17.2044L52.4711,17.2044C52.4711,17.2044 52.2847,18.0016 52.0987,18.4701L48.3281,27.1655L46.2797,27.1655L42.5083,18.4701C42.3223,18.0016 42.136,17.2044 42.136,17.2044L42.0659,17.2044C42.0659,17.2044 42.1594,18.0482 42.136,18.5636L41.391,28.4546L43.3696,28.4546L43.3696,30.2827L37.0378,30.2827L37.0378,28.4546L37.0375,28.4546Z" style="fill:black;fill-rule:nonzero;"/>
                <path d="M67.3017,13.4545C72.051,13.4545 75.752,17.1343 75.752,21.8925C75.752,26.767 72.0513,30.5645 67.3017,30.5645C62.53,30.5645 58.8518,26.767 58.8518,21.8925C58.8518,17.134 62.5297,13.4545 67.3017,13.4545ZM67.3017,28.4788C70.631,28.4788 73.3309,25.6189 73.3309,21.8922C73.3309,18.2824 70.631,15.5171 67.3017,15.5171C63.9496,15.5171 61.2497,18.2827 61.2497,21.8922C61.2494,25.6186 63.9496,28.4788 67.3017,28.4788Z" style="fill:black;fill-rule:nonzero;"/>
                <path d="M77.3018,28.4546L79.3505,28.4546L79.3505,15.5406L77.3018,15.5406L77.3018,13.7357L84.309,13.7357C85.682,13.7357 86.7062,13.806 87.8005,14.1341C90.9431,15.1187 92.9918,17.9781 92.9918,22.0092C92.9918,26.0171 91.0128,28.8065 87.8005,29.8376C86.7294,30.1892 85.6355,30.283 84.3321,30.283L77.3018,30.283L77.3018,28.4546ZM84.192,28.3611C85.2631,28.3611 86.1479,28.267 86.9854,27.9392C89.1967,27.1655 90.5707,25.0328 90.5707,22.0092C90.5707,18.9624 89.197,16.8297 87.0095,16.0328C86.1016,15.7048 85.2634,15.6578 84.1923,15.6578L81.6784,15.6578L81.6784,28.3615L84.192,28.3615L84.192,28.3611Z" style="fill:black;fill-rule:nonzero;"/>
                <path d="M93.8115,28.4546L95.3478,28.4546L99.5846,21.9153L95.4175,15.5402L93.9043,15.5402L93.9043,13.7353L99.1086,13.7353L99.1086,15.5402L97.8851,15.5402L100.609,19.8765C100.865,20.2281 101.028,20.5327 101.028,20.5327L101.075,20.5327C101.075,20.5327 101.214,20.2281 101.47,19.8765L104.101,15.5402L102.924,15.5402L102.924,13.7353L107.966,13.7353L107.966,15.5402L106.429,15.5402L102.169,22.1264L106.359,28.4546L107.919,28.4546L107.919,30.2827L102.715,30.2827L102.715,28.4546L103.914,28.4546L101.168,24.1415C100.911,23.7665 100.749,23.4619 100.749,23.4619L100.702,23.4619C100.679,23.4619 100.563,23.7665 100.33,24.1415L97.6757,28.4546L98.876,28.4546L98.876,30.2827L93.8118,30.2827L93.8118,28.4546L93.8115,28.4546Z" style="fill:black;fill-rule:nonzero;"/>
            </g>
            <path d="M110.079,32.714L110.079,21.0993C110.079,20.7729 109.904,20.6209 109.6,20.6209L108.252,20.6209L108.252,18.9894L110.687,18.9894C111.666,18.9894 112.036,19.4246 112.036,20.0764L112.036,20.164C112.036,20.5119 111.992,20.7947 111.992,20.7947L112.036,20.7947C112.036,20.7947 112.949,18.7284 115.733,18.7284C118.691,18.7284 120.562,21.0771 120.562,24.4923C120.562,27.9947 118.452,30.2562 115.581,30.2562C113.167,30.2562 112.166,28.3849 112.166,28.3849L112.122,28.3849C112.122,28.3849 112.188,28.7774 112.188,29.3427L112.188,32.7136L113.928,32.7136L113.928,34.3451L108.359,34.3451L108.359,32.7136L110.079,32.7136L110.079,32.714ZM115.255,28.4282C116.995,28.4282 118.43,27.0155 118.43,24.5131C118.43,22.1215 117.147,20.5773 115.298,20.5773C113.667,20.5773 112.145,21.7293 112.145,24.5353C112.145,26.4931 113.21,28.4282 115.255,28.4282Z" style="fill:black;fill-rule:nonzero;"/>
            <path d="M127.621,18.7284C130.905,18.7284 133.559,21.1429 133.559,24.4702C133.559,27.82 130.905,30.2566 127.621,30.2566C124.336,30.2566 121.683,27.82 121.683,24.4702C121.683,21.1429 124.336,18.7284 127.621,18.7284ZM127.621,28.4282C129.688,28.4282 131.406,26.776 131.406,24.4702C131.406,22.1869 129.688,20.5555 127.621,20.5555C125.533,20.5555 123.837,22.1869 123.837,24.4702C123.837,26.776 125.533,28.4282 127.621,28.4282Z" style="fill:black;fill-rule:nonzero;"/>
        </g>
    </g>
    <defs>
        <linearGradient id="tag1" x1="0" y1="0" x2="1" y2="0" gradientUnits="userSpaceOnUse" gradientTransform="matrix(-11.7329,-7.63999,7.63999,-11.7329,31.3296,13.6525)"><stop offset="0%" style="stop-color:rgb(128,195,230);stop-opacity:1"/><stop offset="100%" style="stop-color:rgb(51,128,194);stop-opacity:1"/></linearGradient>
        <linearGradient id="tag2" x1="0" y1="0" x2="1" y2="0" gradientUnits="userSpaceOnUse" gradientTransform="matrix(-8.77086,-5.79208,5.79208,-8.77086,33.3891,31.2963)"><stop offset="0%" style="stop-color:rgb(243,134,73);stop-opacity:1"/><stop offset="18%" style="stop-color:rgb(242,129,71);stop-opacity:1"/><stop offset="40%" style="stop-color:rgb(239,114,66);stop-opacity:1"/><stop offset="65%" style="stop-color:rgb(234,90,58);stop-opacity:1"/><stop offset="91%" style="stop-color:rgb(228,56,46);stop-opacity:1"/><stop offset="100%" style="stop-color:rgb(225,42,41);stop-opacity:1"/></linearGradient>
        <linearGradient id="tag3" x1="0" y1="0" x2="1" y2="0" gradientUnits="userSpaceOnUse" gradientTransform="matrix(16.7795,-10.485,10.485,16.7795,4.48837,18.9236)"><stop offset="0%" style="stop-color:rgb(66,171,74);stop-opacity:1"/><stop offset="100%" style="stop-color:rgb(173,209,85);stop-opacity:1"/></linearGradient>
        <linearGradient id="tag4" x1="0" y1="0" x2="1" y2="0" gradientUnits="userSpaceOnUse" gradientTransform="matrix(13.6394,-21.8275,21.8275,13.6394,8.15194,37.6894)"><stop offset="0%" style="stop-color:rgb(66,171,74);stop-opacity:1"/><stop offset="100%" style="stop-color:rgb(173,209,85);stop-opacity:1"/></linearGradient>
    </defs>
</svg>
