<?xml version="1.0" encoding="utf-8"?>
<!-- Generator: Adobe Illustrator 15.1.0, SVG Export Plug-In . SVG Version: 6.00 Build 0)  -->
<!DOCTYPE svg PUBLIC "-//W3C//DTD SVG 1.1//EN" "http://www.w3.org/Graphics/SVG/1.1/DTD/svg11.dtd">
<svg version="1.1" id="Layer_1" xmlns="http://www.w3.org/2000/svg" xmlns:xlink="http://www.w3.org/1999/xlink" x="0px" y="0px"
	 width="271px" height="69px" viewBox="0 0 271 69" enable-background="new 0 0 271 69" xml:space="preserve">
<g>
	<g>
		<defs>
			<rect id="SVGID_1_" x="0" y="0.592" width="161.542" height="67.096"/>
		</defs>
		<clipPath id="SVGID_2_">
			<use xlink:href="#SVGID_1_"  overflow="visible"/>
		</clipPath>
		<g clip-path="url(#SVGID_2_)">
			<defs>
				<rect id="SVGID_3_" x="0" y="0.592" width="161.546" height="67.092"/>
			</defs>
			<clipPath id="SVGID_4_">
				<use xlink:href="#SVGID_3_"  overflow="visible"/>
			</clipPath>
			<path clip-path="url(#SVGID_4_)" fill="#FFFFFF" d="M136.457,66.526c4.374-0.766,8.396-2.421,12.064-4.961
				c3.761-2.539,6.864-6.191,9.307-10.951c2.477-4.79,3.715-10.098,3.715-15.919c0-2.895-0.304-5.66-0.914-8.293
				c-0.612-2.644-1.494-5.117-2.653-7.431c-2.352-4.822-5.565-8.651-9.649-11.485c-4.118-2.794-8.505-4.64-13.168-5.544
				c-4.633-0.899-10.613-1.351-17.943-1.351H85.09v16.063h5.255v34.969H85.09v16.063h31.205
				C125.397,67.688,132.121,67.306,136.457,66.526 M117.264,16.656c5.14,0,8.712,0.786,10.706,2.36
				c2.029,1.581,3.443,3.814,4.247,6.708c0.771,2.897,1.159,5.825,1.159,8.782c0,4.918-0.902,9.002-2.704,12.248
				c-1.83,3.246-5.804,4.871-11.912,4.871h-2.463V16.656H117.264z M59.813,66.191c5.045-0.962,9.017-3.005,11.916-6.122
				c2.891-3.15,4.34-6.98,4.34-11.479c0-3.763-1.284-7.16-3.859-10.177c-2.54-2.964-6.174-5.146-10.903-6.566
				c3.439-0.9,6.367-2.501,8.779-4.822c2.346-2.248,3.521-5.271,3.521-9.07c0-3.889-1.237-7.298-3.714-10.222
				c-2.475-2.865-5.882-4.775-10.223-5.743C55.26,1.057,49.042,0.592,41,0.592H0v16.063h5.838v34.969H0v16.063h37.964
				C47.544,67.688,54.828,67.188,59.813,66.191 M36.609,15.305c4.762,0,7.671,0.629,8.731,1.882
				c1.061,1.251,1.594,2.671,1.594,4.246c0,1.828-0.583,3.311-1.74,4.435c-1.224,1.127-3.777,1.69-7.667,1.69h-5.743V15.305H36.609z
				 M37.528,39.759c4.146,0,6.942,0.536,8.396,1.595c1.447,1.095,2.17,2.78,2.17,5.06c0,2.446-0.81,4.151-2.417,5.118
				c-1.634,0.967-4.325,1.449-8.05,1.449h-5.842l0-13.222H37.528z"/>
		</g>
		<g clip-path="url(#SVGID_2_)">
			<defs>
				<path id="SVGID_5_" d="M36.609,15.305c4.757,0,7.671,0.625,8.731,1.882c1.061,1.251,1.594,2.671,1.594,4.246
					c0,1.828-0.58,3.308-1.74,4.438c-1.219,1.124-3.777,1.687-7.672,1.687h-5.735V15.305H36.609z M37.523,39.759
					c4.151,0,6.95,0.532,8.397,1.595c1.45,1.095,2.17,2.78,2.17,5.06c0,2.45-0.801,4.151-2.408,5.118
					c-1.644,0.967-4.328,1.449-8.055,1.449h-5.838V39.759H37.523z M72.209,38.409c-2.54-2.96-6.174-5.146-10.899-6.563
					c3.438-0.9,6.364-2.506,8.775-4.822c2.346-2.248,3.521-5.271,3.521-9.07c0-3.889-1.24-7.298-3.711-10.225
					c-2.478-2.862-5.888-4.772-10.229-5.736C55.263,1.057,49.038,0.592,41,0.592H0v16.063h5.833v34.973H0v16.063h37.964
					c9.578,0,16.864-0.498,21.85-1.501c5.045-0.962,9.021-3.005,11.912-6.122c2.898-3.15,4.343-6.98,4.343-11.479
					C76.069,44.827,74.782,41.43,72.209,38.409 M117.261,16.656c5.146,0,8.715,0.786,10.713,2.366
					c2.019,1.572,3.439,3.809,4.242,6.702c0.771,2.897,1.156,5.82,1.156,8.782c0,4.918-0.899,9.002-2.696,12.244
					c-1.839,3.25-5.809,4.879-11.917,4.879h-2.459l0.001-34.973H117.261z M160.629,26.402c-0.612-2.644-1.496-5.117-2.653-7.431
					c-2.35-4.822-5.568-8.651-9.649-11.485c-4.113-2.794-8.505-4.646-13.164-5.547c-4.634-0.894-10.618-1.347-17.945-1.347h-32.13
					v16.063h5.258v34.973h-5.258v16.063h31.212c9.098,0,15.821-0.393,20.162-1.156c4.375-0.775,8.393-2.431,12.061-4.971
					c3.758-2.543,6.861-6.191,9.309-10.951c2.475-4.794,3.716-10.1,3.716-15.919C161.546,31.804,161.239,29.036,160.629,26.402"/>
			</defs>
			<clipPath id="SVGID_6_">
				<use xlink:href="#SVGID_5_"  overflow="visible"/>
			</clipPath>
			<g opacity="0.55" clip-path="url(#SVGID_6_)">
				<g>
					<defs>
						<rect id="SVGID_7_" x="-111.311" y="41.051" width="291.583" height="181.48"/>
					</defs>
					<clipPath id="SVGID_8_">
						<use xlink:href="#SVGID_7_"  overflow="visible"/>
					</clipPath>
					<g clip-path="url(#SVGID_8_)">
						<defs>
							<rect id="SVGID_9_" x="-111.306" y="41.051" width="291.578" height="181.48"/>
						</defs>
						<clipPath id="SVGID_10_">
							<use xlink:href="#SVGID_9_"  overflow="visible"/>
						</clipPath>
						<path clip-path="url(#SVGID_10_)" fill="#2E3192" d="M180.259,184.366C154.504,130.18,115.227,84.404,65.027,59.854
							C8.182,32.055-54.416,35.219-111.306,68.498c43.029,75.01,101.75,129.007,162.692,147.438
							C104.857,232.112,149.583,217.363,180.259,184.366"/>
					</g>
				</g>
			</g>
			<g opacity="0.55" clip-path="url(#SVGID_6_)">
				<g>
					<defs>
						<rect id="SVGID_11_" x="-62.083" y="-174.801" width="291.715" height="164.07"/>
					</defs>
					<clipPath id="SVGID_12_">
						<use xlink:href="#SVGID_11_"  overflow="visible"/>
					</clipPath>
					<g clip-path="url(#SVGID_12_)">
						<defs>
							<rect id="SVGID_13_" x="-62.087" y="-174.8" width="291.72" height="164.069"/>
						</defs>
						<clipPath id="SVGID_14_">
							<use xlink:href="#SVGID_13_"  overflow="visible"/>
						</clipPath>
						<path clip-path="url(#SVGID_14_)" fill="#00A997" d="M229.624-89.197c-32.497-45.218-76.956-77.68-128.545-84.335
							C42.047-181.149-16.253-154.05-62.083-98.18C-5.816-38.568,58.751-6.932,117.5-11.098
							C168.74-14.732,206.871-45.324,229.624-89.197"/>
					</g>
				</g>
			</g>
			<g opacity="0.55" clip-path="url(#SVGID_6_)">
				<g>
					<defs>
						<rect id="SVGID_15_" x="-49.606" y="-185.291" width="270.771" height="176.779"/>
					</defs>
					<clipPath id="SVGID_16_">
						<use xlink:href="#SVGID_15_"  overflow="visible"/>
					</clipPath>
					<g clip-path="url(#SVGID_16_)">
						<defs>
							<rect id="SVGID_17_" x="-49.609" y="-185.291" width="270.772" height="176.775"/>
						</defs>
						<clipPath id="SVGID_18_">
							<use xlink:href="#SVGID_17_"  overflow="visible"/>
						</clipPath>
						<path clip-path="url(#SVGID_18_)" fill="#00A651" d="M221.156-142.26c-37.714-34.368-85.119-51.463-134.86-38.911
							C29.295-166.789-19.485-116.796-49.606-43.361C14.51-5.335,79.24,1.939,131.655-23.353
							C177.531-45.484,207.274-89.637,221.156-142.26"/>
					</g>
				</g>
			</g>
			<g opacity="0.55" clip-path="url(#SVGID_6_)">
				<g>
					<defs>
						<rect id="SVGID_19_" x="-24.457" y="-191.731" width="230.47" height="218.919"/>
					</defs>
					<clipPath id="SVGID_20_">
						<use xlink:href="#SVGID_19_"  overflow="visible"/>
					</clipPath>
					<g clip-path="url(#SVGID_20_)">
						<defs>
							<rect id="SVGID_21_" x="-24.458" y="-191.731" width="230.472" height="218.916"/>
						</defs>
						<clipPath id="SVGID_22_">
							<use xlink:href="#SVGID_21_"  overflow="visible"/>
						</clipPath>
						<path clip-path="url(#SVGID_22_)" fill="#82C341" d="M206.007-176.525c-41.254-21.719-89.036-21.747-133.432,10.293
							C22.105-129.807-12.605-60.754-24.457,22.61c65.725,13.432,125.417-2.883,168.286-46.304
							C181.811-62.16,201.797-117.331,206.007-176.525"/>
					</g>
				</g>
			</g>
			<g opacity="0.55" clip-path="url(#SVGID_6_)">
				<g>
					<defs>
						<rect id="SVGID_23_" x="8.871" y="-225.696" width="177.512" height="285.754"/>
					</defs>
					<clipPath id="SVGID_24_">
						<use xlink:href="#SVGID_23_"  overflow="visible"/>
					</clipPath>
					<g clip-path="url(#SVGID_24_)">
						<defs>
							<rect id="SVGID_25_" x="8.871" y="-225.696" width="177.512" height="285.754"/>
						</defs>
						<clipPath id="SVGID_26_">
							<use xlink:href="#SVGID_25_"  overflow="visible"/>
						</clipPath>
						<path clip-path="url(#SVGID_26_)" fill="#FFF200" d="M184.557-224.121c-42.857-7.353-88.086,10.854-123.57,61.336
							C21.344-106.391,3.748-24.546,10.159,60.05C71.63,49.27,122.204,12.372,153.357-45.217
							C181.506-97.257,190.697-160.717,184.557-224.121"/>
					</g>
				</g>
			</g>
			<g opacity="0.55" clip-path="url(#SVGID_6_)">
				<g>
					<defs>
						<rect id="SVGID_27_" x="33.43" y="-249.224" width="137.933" height="348.481"/>
					</defs>
					<clipPath id="SVGID_28_">
						<use xlink:href="#SVGID_27_"  overflow="visible"/>
					</clipPath>
					<g clip-path="url(#SVGID_28_)">
						<defs>
							<rect id="SVGID_29_" x="33.43" y="-249.227" width="137.933" height="348.479"/>
						</defs>
						<clipPath id="SVGID_30_">
							<use xlink:href="#SVGID_29_"  overflow="visible"/>
						</clipPath>
						<path clip-path="url(#SVGID_30_)" fill="#F7941E" d="M157.336-249.216c-42.145,8.556-81.533,45.328-104.798,111.626
							C27.21-65.424,27.736,21.468,50.092,99.251c52.671-31.857,91.423-84.956,109.691-152.313
							C176.718-115.511,174.353-184.299,157.336-249.216"/>
					</g>
				</g>
			</g>
			<g opacity="0.55" clip-path="url(#SVGID_6_)">
				<g>
					<defs>
						<rect id="SVGID_31_" x="45.759" y="-275.095" width="118.015" height="388.69"/>
					</defs>
					<clipPath id="SVGID_32_">
						<use xlink:href="#SVGID_31_"  overflow="visible"/>
					</clipPath>
					<g clip-path="url(#SVGID_32_)">
						<defs>
							<rect id="SVGID_33_" x="45.759" y="-275.096" width="118.015" height="388.692"/>
						</defs>
						<clipPath id="SVGID_34_">
							<use xlink:href="#SVGID_33_"  overflow="visible"/>
						</clipPath>
						<path clip-path="url(#SVGID_34_)" fill="#ED1C24" d="M125.148-275.084c-38.658,25.586-68.715,80.042-77.118,157.859
							c-8.852,81.972,8.695,165.996,43.158,230.816C132.22,65.399,157.792,1.046,162.848-71.595
							C167.675-141.003,153.308-211.84,125.148-275.084"/>
					</g>
				</g>
			</g>
			<g opacity="0.55" clip-path="url(#SVGID_6_)">
				<g>
					<defs>
						<rect id="SVGID_35_" x="46.015" y="-290.925" width="118.771" height="403.292"/>
					</defs>
					<clipPath id="SVGID_36_">
						<use xlink:href="#SVGID_35_"  overflow="visible"/>
					</clipPath>
					<g clip-path="url(#SVGID_36_)">
						<defs>
							<rect id="SVGID_37_" x="46.015" y="-290.923" width="118.768" height="403.293"/>
						</defs>
						<clipPath id="SVGID_38_">
							<use xlink:href="#SVGID_37_"  overflow="visible"/>
						</clipPath>
						<path clip-path="url(#SVGID_38_)" fill="#ED1558" d="M89.212-290.913C57.284-247.979,39.957-178.332,47.946-94.792
							c8.111,84.808,39.881,159.044,82.038,207.156c28.144-59.292,40.269-130.017,32.478-203.628
							C154.772-163.92,128.33-233.141,89.212-290.913"/>
					</g>
				</g>
			</g>
			<g opacity="0.55" clip-path="url(#SVGID_6_)">
				<g>
					<defs>
						<rect id="SVGID_39_" x="34.569" y="-294.345" width="139.984" height="391.979"/>
					</defs>
					<clipPath id="SVGID_40_">
						<use xlink:href="#SVGID_39_"  overflow="visible"/>
					</clipPath>
					<g clip-path="url(#SVGID_40_)">
						<defs>
							<rect id="SVGID_41_" x="34.569" y="-294.345" width="139.987" height="391.983"/>
						</defs>
						<clipPath id="SVGID_42_">
							<use xlink:href="#SVGID_41_"  overflow="visible"/>
						</clipPath>
						<path clip-path="url(#SVGID_42_)" fill="#EC008C" d="M51.336-294.332c-21.63,59.275-23.418,139.749,1.017,222.202
							C76.23,8.437,118.363,67.752,163.991,97.632c15.226-65.441,14.424-138.056-5.304-208.599
							C138.555-182.948,100.503-246.443,51.336-294.332"/>
					</g>
				</g>
			</g>
			<g opacity="0.55" clip-path="url(#SVGID_6_)">
				<g>
					<defs>
						<rect id="SVGID_43_" x="12.062" y="-283.309" width="180.063" height="355.326"/>
					</defs>
					<clipPath id="SVGID_44_">
						<use xlink:href="#SVGID_43_"  overflow="visible"/>
					</clipPath>
					<g clip-path="url(#SVGID_44_)">
						<defs>
							<rect id="SVGID_45_" x="12.062" y="-283.311" width="180.063" height="355.329"/>
						</defs>
						<clipPath id="SVGID_46_">
							<use xlink:href="#SVGID_45_"  overflow="visible"/>
						</clipPath>
						<path clip-path="url(#SVGID_46_)" fill="#8B2890" d="M14.053-283.298C6.188-210.56,21.598-125.445,60.875-51.122
							c37.008,70.029,85.3,111.319,130.798,123.14c3.053-67.3-9.629-137.88-39.95-201.64
							C119.777-196.8,71.301-250.085,14.053-283.298"/>
					</g>
				</g>
			</g>
			<g opacity="0.55" clip-path="url(#SVGID_6_)">
				<g>
					<defs>
						<rect id="SVGID_47_" x="-19.413" y="-256.654" width="231.651" height="295.544"/>
					</defs>
					<clipPath id="SVGID_48_">
						<use xlink:href="#SVGID_47_"  overflow="visible"/>
					</clipPath>
					<g clip-path="url(#SVGID_48_)">
						<defs>
							<rect id="SVGID_49_" x="-19.413" y="-256.654" width="231.651" height="295.54"/>
						</defs>
						<clipPath id="SVGID_50_">
							<use xlink:href="#SVGID_49_"  overflow="visible"/>
						</clipPath>
						<path clip-path="url(#SVGID_50_)" fill="#2E3192" d="M-19.413-256.643c8.642,81.095,41.189,163.352,92.161,223.183
							c46.541,54.631,96.963,76.66,139.48,71.653c-7.936-65.628-31.131-130.778-70.31-184.361
							C99.41-204.304,42.647-242.745-19.413-256.643"/>
					</g>
				</g>
			</g>
			<g display="none" opacity="0.55" clip-path="url(#SVGID_6_)">
				<g display="inline">
					<defs>
						<rect id="SVGID_51_" x="-38.449" y="45.192" width="270.788" height="227.923"/>
					</defs>
					<clipPath id="SVGID_52_">
						<use xlink:href="#SVGID_51_"  overflow="visible"/>
					</clipPath>
					<g clip-path="url(#SVGID_52_)">
						<defs>
							<rect id="SVGID_53_" x="-38.452" y="45.19" width="270.788" height="227.925"/>
						</defs>
						<clipPath id="SVGID_54_">
							<use xlink:href="#SVGID_53_"  overflow="visible"/>
						</clipPath>
						<path clip-path="url(#SVGID_54_)" fill="#0072BC" d="M-38.449,47.355c26.343,82.261,73.962,153.832,132.337,194.343
							c52.021,36.099,101.049,39.111,138.442,19.084c-17.561-61.098-49.684-117.858-95.612-158.232
							C85.642,57.654,23.814,38.363-38.449,47.355"/>
					</g>
				</g>
			</g>
		</g>
	</g>
	<g>
		<path fill="#00AEEF" d="M168.75,17.909l-2.084-6.282h-1.008V9.781h4.323v1.846h-0.866l0.978,2.972l1.622-4.818h2.102l1.571,4.825
			l0.977-2.979h-0.894V9.781h3.84v1.846h-0.993l-2.06,6.282h-2.198l-1.559-4.709l-1.535,4.709H168.75z"/>
		<path fill="#00AEEF" d="M185.891,15.376l1.971,0.637c-0.827,1.308-2.118,1.961-3.874,1.961c-1.401,0-2.493-0.372-3.277-1.117
			c-0.785-0.745-1.177-1.724-1.177-2.938c0-1.235,0.403-2.268,1.215-3.095c0.81-0.828,1.838-1.242,3.092-1.242
			c0.909,0,1.694,0.231,2.355,0.695c0.662,0.463,1.12,1.04,1.379,1.729c0.256,0.689,0.386,1.459,0.386,2.31h-5.916
			c0.038,0.728,0.267,1.244,0.685,1.547s0.859,0.456,1.325,0.456C184.661,16.32,185.273,16.005,185.891,15.376z M185.407,12.893
			c-0.06-0.447-0.231-0.828-0.52-1.142c-0.288-0.314-0.681-0.472-1.179-0.472c-0.931,0-1.472,0.539-1.625,1.614H185.407z"/>
		<path fill="#00AEEF" d="M192.678,6.28v4.409c0.634-0.738,1.388-1.106,2.256-1.106c1.019,0,1.847,0.389,2.483,1.167
			c0.636,0.778,0.955,1.773,0.955,2.988c0,1.297-0.319,2.316-0.955,3.058c-0.637,0.742-1.444,1.113-2.417,1.113
			c-0.876,0-1.649-0.347-2.322-1.04v0.924h-3.915v-1.846h1.379V8.126h-1.379V6.28H192.678z M195.771,13.721
			c0-0.684-0.141-1.2-0.418-1.548c-0.281-0.347-0.649-0.521-1.108-0.521c-0.438,0-0.813,0.171-1.124,0.513
			c-0.313,0.342-0.469,0.9-0.469,1.672c0,0.652,0.146,1.161,0.439,1.531s0.669,0.555,1.129,0.555c0.443,0,0.813-0.18,1.107-0.538
			S195.771,14.471,195.771,13.721z"/>
		<path fill="#00AEEF" d="M200.004,17.793v-2.756h1.854c0.017,0.375,0.188,0.674,0.518,0.898c0.328,0.224,0.732,0.335,1.214,0.335
			c0.415,0,0.739-0.074,0.973-0.22c0.231-0.146,0.349-0.333,0.349-0.558c0-0.21-0.106-0.373-0.319-0.489
			c-0.214-0.116-0.633-0.226-1.255-0.332c-1.287-0.21-2.214-0.53-2.783-0.957c-0.568-0.427-0.853-0.995-0.853-1.7
			c0-0.663,0.269-1.22,0.803-1.675c0.536-0.456,1.248-0.683,2.135-0.683c0.717,0,1.387,0.133,2.01,0.401V9.781h1.813v2.326h-1.813
			c-0.163-0.557-0.744-0.836-1.739-0.836c-0.733,0-1.099,0.204-1.099,0.612c0,0.155,0.073,0.272,0.225,0.352
			c0.15,0.08,0.535,0.176,1.152,0.286c0.98,0.171,1.713,0.342,2.2,0.513c0.486,0.172,0.876,0.454,1.168,0.849
			c0.293,0.395,0.438,0.868,0.438,1.42c0,0.784-0.276,1.424-0.832,1.924c-0.555,0.5-1.341,0.749-2.359,0.749
			c-0.946,0-1.593-0.194-1.944-0.583v0.401H200.004z"/>
		<path fill="#00AEEF" d="M208.301,11.627V9.781h3.741v6.167h1.183v1.846h-4.924v-1.846h1.205v-4.32H208.301z M209.416,7.484
			c0-0.386,0.135-0.715,0.406-0.99c0.271-0.274,0.597-0.413,0.979-0.413c0.389,0,0.717,0.138,0.985,0.413
			c0.268,0.275,0.401,0.604,0.401,0.99s-0.135,0.713-0.404,0.986c-0.272,0.271-0.599,0.408-0.982,0.408
			c-0.378,0-0.702-0.137-0.975-0.413C209.553,8.191,209.416,7.863,209.416,7.484z"/>
		<path fill="#00AEEF" d="M213.864,11.627V9.781h1.008V8.523l2.537-1.837v3.095h1.459v1.846h-1.459v3.474
			c0,0.315,0.039,0.527,0.118,0.635c0.08,0.108,0.262,0.162,0.545,0.162c0.237,0,0.501-0.055,0.796-0.165v1.771
			c-0.65,0.271-1.288,0.406-1.912,0.406c-1.389,0-2.084-0.696-2.084-2.088v-4.194H213.864z"/>
		<path fill="#00AEEF" d="M226.328,15.376l1.969,0.637c-0.825,1.308-2.116,1.961-3.874,1.961c-1.399,0-2.492-0.372-3.277-1.117
			c-0.785-0.745-1.178-1.724-1.178-2.938c0-1.235,0.405-2.268,1.214-3.095c0.811-0.828,1.842-1.242,3.095-1.242
			c0.907,0,1.693,0.231,2.354,0.695c0.662,0.463,1.123,1.04,1.379,1.729c0.257,0.689,0.386,1.459,0.386,2.31h-5.916
			c0.038,0.728,0.267,1.244,0.686,1.547s0.861,0.456,1.326,0.456C225.096,16.32,225.71,16.005,226.328,15.376z M225.845,12.893
			c-0.061-0.447-0.233-0.828-0.521-1.142c-0.288-0.314-0.681-0.472-1.18-0.472c-0.928,0-1.472,0.539-1.624,1.614H225.845z"/>
		<path fill="#00AEEF" d="M179.41,36.287v1.847h-3.815V37.5c-0.685,0.5-1.407,0.749-2.167,0.749c-0.788,0-1.469-0.226-2.04-0.678
			c-0.57-0.453-0.857-1.061-0.857-1.822c0-0.767,0.302-1.408,0.902-1.928c0.604-0.519,1.38-0.778,2.332-0.778
			c0.53,0,1.14,0.135,1.83,0.406v-0.488c0-0.408-0.138-0.744-0.41-1.006c-0.274-0.261-0.642-0.393-1.1-0.393
			c-0.569,0-1.056,0.209-1.462,0.629l-2.043-0.373c0.592-1.264,1.874-1.895,3.85-1.895c0.765,0,1.399,0.086,1.903,0.261
			c0.503,0.174,0.877,0.398,1.124,0.674c0.245,0.275,0.418,0.578,0.521,0.906c0.101,0.328,0.15,0.862,0.15,1.602v2.921H179.41z
			 M175.595,35.171c-0.614-0.386-1.103-0.579-1.47-0.579c-0.29,0-0.553,0.084-0.791,0.256c-0.238,0.173-0.358,0.419-0.358,0.745
			c0,0.292,0.097,0.543,0.288,0.754c0.19,0.208,0.438,0.313,0.739,0.313c0.47,0,1.001-0.279,1.592-0.836V35.171z"/>
		<path fill="#00AEEF" d="M185.687,36.287v1.847H180.1v-1.847h1.468v-4.32h-1.379v-1.845h3.701v2.036
			c0.143-0.585,0.467-1.091,0.972-1.519c0.507-0.427,1.104-0.642,1.793-0.642c0.116,0,0.252,0.003,0.41,0.009v2.417
			c-0.639,0-1.162,0.072-1.566,0.215c-0.405,0.144-0.739,0.458-1.001,0.943c-0.263,0.486-0.394,1.06-0.394,1.723v0.983H185.687z"/>
		<path fill="#00AEEF" d="M195.983,30.122v3.252h-1.805c-0.41-0.894-1.053-1.341-1.928-1.341c-0.559,0-1.002,0.187-1.332,0.559
			c-0.331,0.373-0.497,0.871-0.497,1.494c0,0.756,0.173,1.315,0.524,1.677c0.35,0.359,0.78,0.542,1.288,0.542
			c0.405,0,0.787-0.117,1.148-0.353c0.36-0.233,0.65-0.544,0.871-0.931l1.968,0.873c-0.732,1.613-2.018,2.421-3.855,2.421
			c-1.386,0-2.488-0.381-3.312-1.143s-1.235-1.779-1.235-3.054s0.403-2.28,1.212-3.017c0.806-0.737,1.745-1.105,2.817-1.105
			c0.858,0,1.66,0.263,2.405,0.787v-0.662H195.983z"/>
		<path fill="#00AEEF" d="M197.1,38.134v-1.847h1.28v-7.821h-1.28v-1.845h3.807v4.146c0.8-0.563,1.551-0.844,2.257-0.844
			c1.626,0,2.438,0.985,2.438,2.955v3.409h1.166v1.847h-3.701v-5.14c0-0.375-0.068-0.633-0.2-0.773
			c-0.135-0.141-0.337-0.211-0.604-0.211c-0.378,0-0.828,0.168-1.354,0.505v3.773h1.132v1.847H197.1z"/>
		<path fill="#00AEEF" d="M207.849,31.967v-1.845h3.741v6.165h1.182v1.847h-4.923v-1.847h1.207v-4.32H207.849z M208.965,27.825
			c0-0.386,0.136-0.715,0.406-0.99c0.271-0.275,0.599-0.413,0.98-0.413c0.388,0,0.717,0.138,0.985,0.413
			c0.268,0.274,0.402,0.604,0.402,0.99s-0.136,0.713-0.408,0.987c-0.27,0.271-0.597,0.408-0.979,0.408
			c-0.377,0-0.703-0.138-0.977-0.413C209.102,28.532,208.965,28.204,208.965,27.825z"/>
		<path fill="#00AEEF" d="M213.413,31.967v-1.845h1.007v-1.258l2.536-1.837v3.096h1.461v1.845h-1.461v3.474
			c0,0.315,0.04,0.528,0.12,0.635c0.079,0.107,0.261,0.163,0.544,0.163c0.236,0,0.502-0.056,0.797-0.167v1.771
			c-0.651,0.272-1.288,0.406-1.912,0.406c-1.389,0-2.085-0.695-2.085-2.088v-4.194H213.413z"/>
		<path fill="#00AEEF" d="M225.875,35.717l1.971,0.638c-0.826,1.307-2.117,1.961-3.874,1.961c-1.4,0-2.493-0.373-3.277-1.117
			c-0.785-0.745-1.178-1.725-1.178-2.938c0-1.235,0.404-2.268,1.216-3.095c0.81-0.827,1.839-1.241,3.092-1.241
			c0.909,0,1.693,0.231,2.356,0.695c0.662,0.463,1.12,1.04,1.379,1.729c0.256,0.689,0.386,1.459,0.386,2.31h-5.917
			c0.038,0.728,0.267,1.244,0.686,1.547c0.417,0.304,0.858,0.455,1.324,0.455C224.646,36.66,225.258,36.347,225.875,35.717z
			 M225.392,33.234c-0.06-0.447-0.231-0.828-0.52-1.142c-0.288-0.315-0.681-0.472-1.178-0.472c-0.932,0-1.472,0.538-1.626,1.614
			H225.392z"/>
		<path fill="#00AEEF" d="M237.313,30.122v3.252h-1.806c-0.409-0.894-1.053-1.341-1.927-1.341c-0.558,0-1.004,0.187-1.335,0.559
			c-0.331,0.373-0.495,0.871-0.495,1.494c0,0.756,0.175,1.315,0.524,1.677c0.351,0.359,0.779,0.542,1.289,0.542
			c0.403,0,0.788-0.117,1.149-0.353c0.36-0.233,0.65-0.544,0.868-0.931l1.97,0.873c-0.733,1.613-2.02,2.421-3.856,2.421
			c-1.384,0-2.488-0.381-3.312-1.143c-0.821-0.762-1.234-1.779-1.234-3.054s0.404-2.28,1.21-3.017
			c0.807-0.737,1.746-1.105,2.819-1.105c0.857,0,1.66,0.263,2.403,0.787v-0.662H237.313z"/>
		<path fill="#00AEEF" d="M238.29,31.967v-1.845h1.01v-1.258l2.534-1.837v3.096h1.462v1.845h-1.462v3.474
			c0,0.315,0.04,0.528,0.12,0.635c0.079,0.107,0.261,0.163,0.546,0.163c0.234,0,0.5-0.056,0.796-0.167v1.771
			c-0.652,0.272-1.288,0.406-1.911,0.406c-1.391,0-2.085-0.695-2.085-2.088v-4.194H238.29z"/>
		<path fill="#00AEEF" d="M253.848,36.287v1.847h-3.816v-0.683c-0.76,0.533-1.531,0.798-2.313,0.798
			c-0.765,0-1.366-0.217-1.802-0.651c-0.433-0.432-0.651-1.045-0.651-1.835v-3.795h-1.188v-1.845h3.716v4.99
			c0,0.397,0.06,0.67,0.181,0.814c0.121,0.146,0.339,0.221,0.657,0.221c0.426,0,0.894-0.191,1.401-0.57v-3.61h-1.221v-1.845h3.758
			v6.165H253.848z"/>
		<path fill="#00AEEF" d="M260.299,36.287v1.847h-5.589v-1.847h1.468v-4.32h-1.379v-1.845h3.701v2.036
			c0.143-0.585,0.468-1.091,0.972-1.519c0.507-0.427,1.104-0.642,1.793-0.642c0.116,0,0.252,0.003,0.411,0.009v2.417
			c-0.64,0-1.162,0.072-1.566,0.215c-0.405,0.144-0.74,0.458-1.001,0.943c-0.264,0.486-0.395,1.06-0.395,1.723v0.983H260.299z"/>
		<path fill="#00AEEF" d="M268.79,35.717l1.97,0.638c-0.826,1.307-2.116,1.961-3.874,1.961c-1.399,0-2.492-0.373-3.277-1.117
			c-0.785-0.745-1.178-1.725-1.178-2.938c0-1.235,0.404-2.268,1.214-3.095c0.81-0.827,1.842-1.241,3.094-1.241
			c0.907,0,1.694,0.231,2.354,0.695c0.662,0.463,1.123,1.04,1.379,1.729c0.257,0.689,0.386,1.459,0.386,2.31h-5.916
			c0.038,0.728,0.267,1.244,0.686,1.547c0.419,0.304,0.86,0.455,1.325,0.455C267.559,36.66,268.172,36.347,268.79,35.717z
			 M268.307,33.234c-0.06-0.447-0.233-0.828-0.521-1.142c-0.288-0.315-0.681-0.472-1.18-0.472c-0.928,0-1.472,0.538-1.624,1.614
			H268.307z"/>
		<path fill="#00AEEF" d="M178.441,56.628v1.847h-3.382l-1.032-1.274c-1.09,0.981-2.317,1.474-3.686,1.474
			c-1.241,0-2.229-0.35-2.966-1.053c-0.735-0.7-1.104-1.527-1.104-2.482c0-0.734,0.234-1.396,0.701-1.986
			c0.469-0.59,1.284-1.167,2.45-1.73c-0.597-0.694-0.895-1.393-0.895-2.094c0-0.817,0.302-1.444,0.905-1.887
			c0.605-0.44,1.34-0.662,2.204-0.662c0.876,0,1.604,0.222,2.183,0.662c0.58,0.442,0.869,1.005,0.869,1.688
			c0,1.066-0.662,1.938-1.984,2.617l1.624,2.076c0.612-0.838,1.083-1.637,1.412-2.391h2.699v1.845h-1.395
			c-0.416,0.871-0.876,1.595-1.379,2.169l0.935,1.183H178.441z M170.58,52.839c-1.132,0.475-1.698,1.117-1.698,1.927
			c0,0.458,0.179,0.863,0.537,1.214c0.358,0.35,0.819,0.524,1.384,0.524c0.655,0,1.306-0.299,1.951-0.901L170.58,52.839z
			 M171.565,50.297c0.731-0.331,1.1-0.714,1.1-1.15c0-0.226-0.091-0.423-0.275-0.588c-0.184-0.166-0.403-0.248-0.66-0.248
			c-0.247,0-0.462,0.07-0.644,0.212c-0.184,0.14-0.274,0.313-0.274,0.517C170.812,49.248,171.063,49.667,171.565,50.297z"/>
		<path fill="#00AEEF" d="M193.53,56.628v1.847h-3.841V57.52c-0.705,0.714-1.472,1.07-2.297,1.07c-0.99,0-1.81-0.406-2.462-1.216
			c-0.65-0.812-0.977-1.795-0.977-2.947c0-1.169,0.335-2.154,1.002-2.959c0.667-0.802,1.483-1.203,2.444-1.203
			c0.926,0,1.688,0.363,2.289,1.089v-2.546h-1.238v-1.847h3.774v9.667H193.53z M189.715,54.452c0-0.768-0.163-1.313-0.488-1.639
			c-0.324-0.325-0.695-0.488-1.111-0.488c-0.498,0-0.882,0.193-1.153,0.582c-0.271,0.391-0.405,0.901-0.405,1.537
			c0,0.601,0.134,1.108,0.402,1.518c0.268,0.411,0.655,0.616,1.165,0.616c0.42,0,0.791-0.166,1.11-0.499
			C189.556,55.744,189.715,55.202,189.715,54.452z"/>
		<path fill="#00AEEF" d="M200.825,56.058l1.97,0.638c-0.825,1.307-2.117,1.962-3.873,1.962c-1.4,0-2.493-0.374-3.278-1.118
			c-0.786-0.744-1.178-1.725-1.178-2.938c0-1.236,0.405-2.269,1.215-3.097c0.81-0.827,1.841-1.24,3.094-1.24
			c0.907,0,1.693,0.231,2.354,0.694c0.662,0.463,1.123,1.041,1.379,1.73c0.257,0.688,0.386,1.458,0.386,2.308h-5.916
			c0.038,0.729,0.267,1.244,0.686,1.549c0.418,0.304,0.86,0.455,1.325,0.455C199.594,57.001,200.208,56.688,200.825,56.058z
			 M200.342,53.575c-0.06-0.447-0.233-0.828-0.521-1.143c-0.288-0.315-0.681-0.473-1.178-0.473c-0.93,0-1.473,0.538-1.624,1.615
			H200.342z"/>
		<path fill="#00AEEF" d="M204.436,58.475v-2.756h1.854c0.018,0.375,0.189,0.674,0.519,0.897c0.327,0.225,0.731,0.335,1.214,0.335
			c0.415,0,0.739-0.072,0.973-0.22c0.231-0.146,0.348-0.331,0.348-0.557c0-0.211-0.106-0.374-0.319-0.49
			c-0.214-0.115-0.632-0.226-1.255-0.331c-1.286-0.211-2.214-0.53-2.783-0.957c-0.567-0.427-0.852-0.995-0.852-1.699
			c0-0.663,0.269-1.222,0.802-1.675c0.537-0.456,1.249-0.684,2.135-0.684c0.717,0,1.388,0.132,2.011,0.4v-0.276h1.813v2.326h-1.813
			c-0.163-0.558-0.744-0.837-1.739-0.837c-0.733,0-1.1,0.205-1.1,0.612c0,0.155,0.074,0.272,0.226,0.353
			c0.15,0.078,0.534,0.174,1.151,0.285c0.981,0.172,1.714,0.343,2.2,0.513c0.487,0.173,0.876,0.454,1.169,0.848
			c0.293,0.395,0.438,0.869,0.438,1.421c0,0.784-0.276,1.424-0.832,1.923c-0.556,0.502-1.341,0.751-2.359,0.751
			c-0.946,0-1.594-0.195-1.945-0.584v0.401H204.436z"/>
		<path fill="#00AEEF" d="M212.732,52.309v-1.846h3.74v6.165h1.183v1.847h-4.923v-1.847h1.205v-4.319H212.732z M213.848,48.167
			c0-0.387,0.135-0.716,0.406-0.992c0.271-0.273,0.597-0.411,0.979-0.411c0.389,0,0.717,0.138,0.985,0.411
			c0.268,0.276,0.401,0.605,0.401,0.992c0,0.385-0.136,0.712-0.405,0.985c-0.271,0.271-0.598,0.407-0.981,0.407
			c-0.378,0-0.702-0.138-0.975-0.413C213.984,48.873,213.848,48.546,213.848,48.167z"/>
		<path fill="#00AEEF" d="M228.197,50.463v1.846h-1.312v5.923c0,2.646-1.384,3.968-4.152,3.968c-1.588,0-2.768-0.291-3.546-0.869
			l1.232-1.697c0.64,0.398,1.283,0.598,1.928,0.598c0.563,0,1.038-0.147,1.424-0.44c0.386-0.291,0.578-0.859,0.578-1.705v-0.613
			c-0.827,0.747-1.631,1.118-2.412,1.118c-0.919,0-1.704-0.389-2.351-1.162c-0.648-0.774-0.974-1.765-0.974-2.968
			c0-1.208,0.334-2.197,1.001-2.967s1.483-1.154,2.445-1.154c0.926,0,1.689,0.369,2.29,1.106v-0.982H228.197z M224.357,54.494
			c0-0.647-0.143-1.158-0.427-1.531c-0.283-0.375-0.672-0.563-1.164-0.563c-0.503,0-0.889,0.191-1.154,0.578
			c-0.265,0.387-0.396,0.884-0.396,1.49c0,0.607,0.138,1.101,0.414,1.485c0.275,0.385,0.655,0.574,1.137,0.574
			c0.442,0,0.817-0.178,1.128-0.532C224.203,55.641,224.357,55.139,224.357,54.494z"/>
		<path fill="#00AEEF" d="M229.077,52.309v-1.846h3.749v0.745c0.767-0.58,1.543-0.869,2.33-0.869c1.604,0,2.404,1.031,2.404,3.095
			v3.194h1.199v1.847h-3.735v-4.85c0-0.437-0.058-0.734-0.175-0.894c-0.118-0.161-0.313-0.241-0.58-0.241
			c-0.47,0-0.951,0.174-1.443,0.522v3.615h1.222v1.847h-4.971v-1.847h1.213v-4.319H229.077z"/>
	</g>
</g>
</svg>
