<?xml version="1.0" encoding="utf-8"?>
<!-- Generator: Adobe Illustrator 16.0.0, SVG Export Plug-In . SVG Version: 6.00 Build 0)  -->
<!DOCTYPE svg PUBLIC "-//W3C//DTD SVG 1.1//EN" "http://www.w3.org/Graphics/SVG/1.1/DTD/svg11.dtd">
<svg version="1.1" id="Ebene_1" xmlns="http://www.w3.org/2000/svg" xmlns:xlink="http://www.w3.org/1999/xlink" x="0px" y="0px"
	 width="443.479px" height="115.001px" viewBox="0 0 443.479 115.001" enable-background="new 0 0 443.479 115.001"
	 xml:space="preserve">
<g>
	<g>
		<path fill="#254C7F" d="M179.835,42.479v22.75h-6.449V42.056c0-3.332-0.921-6.804-7.299-6.804c-4.041,0-7.442,1.134-9.497,1.984
			c0.567,1.559,0.851,3.33,0.851,5.244v22.75h-6.52V42.126c0-3.332-0.922-6.733-8.15-6.733c-2.906,0-5.6,0.495-7.725,1.063v28.773
			h-6.52V32.771c1.275-0.638,7.228-3.544,14.74-3.544c3.897,0,7.086,0.992,9.426,2.693c2.621-1.063,7.37-2.693,12.969-2.693
			C174.591,29.227,179.835,34.189,179.835,42.479z"/>
		<path fill="#254C7F" d="M221.508,47.581c0,15.025-9.071,18.215-16.653,18.215c-7.584,0-16.655-3.189-16.655-18.215
			c0-15.023,9.071-18.212,16.655-18.212C212.437,29.369,221.508,32.558,221.508,47.581z M214.988,47.581
			c0-10.984-4.819-12.472-10.134-12.472c-5.316,0-10.135,1.488-10.135,12.472c0,10.986,4.818,12.475,10.135,12.475
			C210.169,60.056,214.988,58.567,214.988,47.581z"/>
		<path fill="#254C7F" d="M244.823,29.298c2.623,0,5.104,0.354,7.584,1.062V16.4h6.449v37.914c0,2.695-1.062,11.482-14.6,11.482
			c-5.881,0-15.662-2.41-15.662-18.709C228.595,32.417,237.454,29.298,244.823,29.298z M244.257,60.056
			c5.386,0,8.15-1.771,8.15-5.316V36.527c-2.41-0.992-4.961-1.488-7.584-1.488c-5.031,0-9.779,1.488-9.779,12.048
			C235.044,58.567,239.935,60.056,244.257,60.056z"/>
		<path fill="#254C7F" d="M325.262,44.394v20.836h-12.19V43.897c0-2.268-0.779-5.458-4.89-5.458c-1.133,0-3.827,0.354-4.89,0.709
			c0.354,1.063,0.921,3.543,0.921,5.245v20.836h-12.188V43.755c0-2.125-0.64-5.172-4.607-5.172c-1.063,0-3.471,0.425-4.252,0.638
			v26.009h-12.189V33.054c0.283-0.07,8.149-3.686,17.506-3.686c3.4,0,6.306,0.709,8.645,2.055c2.693-0.921,8.148-2.055,12.26-2.055
			C319.096,29.369,325.262,34.401,325.262,44.394z"/>
		<path fill="#254C7F" d="M367.005,47.581c0,11.766-6.166,18.143-17.008,18.143c-10.845,0-17.01-6.377-17.01-18.143
			c0-11.763,6.165-18.142,17.01-18.142C360.839,29.439,367.005,35.818,367.005,47.581z M354.815,47.581
			c0-6.377-1.773-9.353-4.818-9.353c-3.049,0-4.819,2.976-4.819,9.353c0,6.379,1.771,9.355,4.819,9.355
			C353.042,56.937,354.815,53.96,354.815,47.581z"/>
		<path fill="#254C7F" d="M395.212,29.298v10.205c-4.323,0.07-6.662,0.426-8.01,0.639v25.088h-12.188V33.337
			C376.22,32.841,383.66,29.582,395.212,29.298z"/>
		<path fill="#254C7F" d="M433.267,50.347h-20.125c0,3.4,3.896,5.881,7.581,5.881c5.104,0,8.646-1.275,11.128-2.764v8.574
			c-3.757,2.412-8.434,3.686-13.89,3.686c-7.089,0-16.797-2.834-16.797-17.857c0-10.49,4.535-18.568,16.229-18.568
			c11.197,0,16.087,8.363,16.087,17.22C433.479,47.937,433.409,49.212,433.267,50.347z M421.361,43.046
			c-0.142-2.268-1.488-6.023-3.969-6.023c-2.409,0-3.826,3.119-3.968,6.023H421.361z"/>
	</g>
	<g>
		<path fill="#254C7F" d="M16.137,43.96c3.866,0.841,7.985,3.447,7.985,8.995v9.751c0,2.689,0,5.548,4.035,5.548h1.849v9.667h-2.521
			c-9.246,0-13.281-5.801-13.281-13.365V53.46c0-3.867-4.203-4.624-4.203-4.624v-9.751c0,0,4.203-0.757,4.203-4.624V23.366
			C14.203,15.8,18.238,10,27.484,10h2.521v9.667h-1.849c-4.035,0-4.035,2.858-4.035,5.548v9.751
			C24.122,40.514,20.003,43.12,16.137,43.96z"/>
		<path fill="#254C7F" d="M76.067,25.215c0-2.69,0-5.548-4.035-5.548h-1.85V10h2.522c9.246,0,13.281,5.8,13.281,13.366v11.096
			c0,3.867,4.203,4.624,4.203,4.624v9.751c0,0-4.203,0.757-4.203,4.624v11.096c0,7.564-4.035,13.365-13.281,13.365h-2.522v-9.667
			h1.85c4.035,0,4.035-2.858,4.035-5.548v-9.751c0-5.548,4.118-8.154,7.985-8.995c-3.867-0.84-7.985-3.446-7.985-8.994V25.215z"/>
	</g>
	<g>
		<path fill="#254C7F" d="M217.663,87.405v17.596h-2.427V91.126l-6.015,7.887l-5.988-7.887v13.875h-2.428V87.405h2.639l5.777,7.598
			l5.804-7.598H217.663z"/>
		<path fill="#254C7F" d="M237.81,96.188c0,7.467-4.459,9.023-8.178,9.023c-3.72,0-8.178-1.557-8.178-9.023
			c0-7.465,4.458-9.02,8.178-9.02C233.351,87.169,237.81,88.724,237.81,96.188z M235.356,96.188c0-6.039-3.061-6.805-5.725-6.805
			c-2.665,0-5.725,0.766-5.725,6.805c0,6.043,3.06,6.809,5.725,6.809C232.296,102.997,235.356,102.231,235.356,96.188z"/>
		<path fill="#254C7F" d="M255.134,105.001h-2.901l-4.247-6.674h-3.957v6.674h-2.454V87.405h6.489c3.852,0,6.332,1.848,6.332,5.33
			c0,3.139-1.979,4.643-3.932,5.195L255.134,105.001z M251.942,92.813c0-1.582-0.713-3.219-4.09-3.219h-3.824v6.412h3.93
			C251.335,96.007,251.942,94.396,251.942,92.813z"/>
		<path fill="#254C7F" d="M260.746,89.7v5.355h7.941v2.295h-7.941v5.355h9.022v2.295h-11.476V87.405h11.476V89.7H260.746z"/>
		<path fill="#254C7F" d="M293.58,87.405V89.7h-8.627v5.355h7.597v2.295h-7.597v7.65H282.5V87.405H293.58z"/>
		<path fill="#254C7F" d="M312.41,96.188c0,7.467-4.458,9.023-8.179,9.023c-3.719,0-8.178-1.557-8.178-9.023
			c0-7.465,4.459-9.02,8.178-9.02C307.952,87.169,312.41,88.724,312.41,96.188z M309.956,96.188c0-6.039-3.059-6.805-5.725-6.805
			c-2.665,0-5.725,0.766-5.725,6.805c0,6.043,3.06,6.809,5.725,6.809C306.897,102.997,309.956,102.231,309.956,96.188z"/>
		<path fill="#254C7F" d="M329.736,105.001h-2.903l-4.246-6.674h-3.958v6.674h-2.454V87.405h6.489c3.854,0,6.332,1.848,6.332,5.33
			c0,3.139-1.978,4.643-3.931,5.195L329.736,105.001z M326.543,92.813c0-1.582-0.712-3.219-4.088-3.219h-3.826v6.412h3.931
			C325.937,96.007,326.543,94.396,326.543,92.813z"/>
		<path fill="#254C7F" d="M358.664,87.405v17.596h-2.427V91.126l-6.015,7.887l-5.987-7.887v13.875h-2.428V87.405h2.637l5.778,7.598
			l5.804-7.598H358.664z"/>
		<path fill="#254C7F" d="M378.811,96.188c0,7.467-4.458,9.023-8.18,9.023c-3.718,0-8.176-1.557-8.176-9.023
			c0-7.465,4.458-9.02,8.176-9.02C374.353,87.169,378.811,88.724,378.811,96.188z M376.356,96.188c0-6.039-3.061-6.805-5.726-6.805
			c-2.663,0-5.724,0.766-5.724,6.805c0,6.043,3.061,6.809,5.724,6.809C373.296,102.997,376.356,102.231,376.356,96.188z"/>
		<path fill="#254C7F" d="M396.425,96.216c0,5.752-2.849,8.785-8.257,8.785h-5.62V87.405h5.62
			C393.576,87.405,396.425,90.44,396.425,96.216z M393.998,96.216c0-4.59-1.925-6.648-6.226-6.648h-2.77v13.271h2.77
			C392.073,102.839,393.998,100.78,393.998,96.216z"/>
		<path fill="#254C7F" d="M407.473,95.952l6.384,9.049h-3.007l-4.75-6.781l-4.775,6.781h-2.98l6.306-8.812l-6.148-8.783h2.981
			l4.617,6.57l4.618-6.57h2.98L407.473,95.952z"/>
		<path fill="#254C7F" d="M433.477,96.188c0,4.986-4.037,9.023-9.021,9.023c-4.986,0-9.021-4.037-9.021-9.023
			c0-4.957,4.035-9.02,9.021-9.02C429.439,87.169,433.477,91.231,433.477,96.188z M432.29,96.188c0-4.326-3.509-7.834-7.835-7.834
			c-4.354,0-7.862,3.508-7.862,7.834c0,4.355,3.509,7.863,7.862,7.863C428.781,104.052,432.29,100.544,432.29,96.188z
			 M428.886,101.333h-1.687l-2.481-3.902h-2.321v3.902h-1.423v-10.26h3.799c2.24,0,3.691,1.082,3.691,3.113
			c0,1.82-1.16,2.689-2.295,3.008L428.886,101.333z M427.013,94.212c0-0.922-0.395-1.873-2.373-1.873h-2.243v3.746h2.295
			C426.671,96.085,427.013,95.136,427.013,94.212z"/>
	</g>
	<g>
		<path fill="#254C7F" d="M54.844,39.295h10.508v9.415H54.844v10.508h-9.415V48.71H34.838v-9.415h10.591V28.704h9.415V39.295z"/>
	</g>
</g>
</svg>
