<?xml version="1.0" standalone="no"?>
<!DOCTYPE svg PUBLIC "-//W3C//DTD SVG 1.1//EN" "http://www.w3.org/Graphics/SVG/1.1/DTD/svg11.dtd">
<svg width="100%" height="100%" viewBox="0 0 280 180" version="1.1" xmlns="http://www.w3.org/2000/svg" xmlns:xlink="http://www.w3.org/1999/xlink" xml:space="preserve" style="fill-rule:evenodd;clip-rule:evenodd;stroke-linejoin:round;stroke-miterlimit:1.41421;">
    <g>
        <g>
            <path d="M15.691,19.384L15.691,11.375L12.379,19.384L11.883,19.384L8.586,11.375L8.586,19.384L7.375,19.384L7.375,9.654L9.112,9.654L12.132,16.977L15.166,9.654L16.902,9.654L16.902,19.384L15.691,19.384Z" style="fill:white;fill-rule:nonzero;"/>
            <path d="M18.937,14.527C18.937,11.653 20.877,9.494 23.766,9.494C26.64,9.494 28.595,11.653 28.595,14.527C28.595,17.4 26.64,19.56 23.766,19.56C20.877,19.56 18.937,17.4 18.937,14.527ZM27.34,14.527C27.34,12.252 25.939,10.574 23.766,10.574C21.578,10.574 20.192,12.252 20.192,14.527C20.192,16.788 21.578,18.48 23.766,18.48C25.939,18.48 27.34,16.788 27.34,14.527Z" style="fill:white;fill-rule:nonzero;"/>
            <path d="M30.628,19.384L30.628,9.654L33.954,9.654C36.974,9.654 38.944,11.769 38.944,14.527C38.944,17.298 36.974,19.384 33.954,19.384L30.628,19.384ZM37.69,14.527C37.69,12.426 36.362,10.734 33.955,10.734L31.84,10.734L31.84,18.305L33.955,18.305C36.318,18.305 37.69,16.613 37.69,14.527Z" style="fill:white;fill-rule:nonzero;"/>
            <path d="M47.28,19.384L44.173,15.241L41.066,19.384L39.592,19.384L43.384,14.395L39.811,9.654L41.284,9.654L44.172,13.549L47.047,9.654L48.521,9.654L44.961,14.38L48.739,19.384L47.28,19.384Z" style="fill:white;fill-rule:nonzero;"/>
            <path d="M50.219,19.384L50.219,9.654L54.128,9.654C56.083,9.654 57.177,10.996 57.177,12.587C57.177,14.176 56.054,15.519 54.128,15.519L51.429,15.519L51.429,19.385L50.219,19.385L50.219,19.384ZM55.922,12.587C55.922,11.492 55.134,10.734 53.982,10.734L51.429,10.734L51.429,14.439L53.982,14.439C55.134,14.439 55.922,13.68 55.922,12.587Z" style="fill:white;fill-rule:nonzero;"/>
            <path d="M58.539,14.527C58.539,11.653 60.479,9.494 63.368,9.494C66.242,9.494 68.196,11.653 68.196,14.527C68.196,17.4 66.242,19.56 63.368,19.56C60.479,19.56 58.539,17.4 58.539,14.527ZM66.942,14.527C66.942,12.252 65.542,10.574 63.368,10.574C61.18,10.574 59.793,12.252 59.793,14.527C59.793,16.788 61.179,18.48 63.368,18.48C65.542,18.48 66.942,16.788 66.942,14.527Z" style="fill:white;fill-rule:nonzero;"/>
            <path d="M73.808,19.384L73.808,18.422C77.309,15.665 79.206,14.045 79.206,12.367C79.206,11.127 78.185,10.588 77.178,10.588C76.01,10.588 75.107,11.084 74.538,11.813L73.794,11.04C74.538,10.063 75.807,9.508 77.178,9.508C78.798,9.508 80.446,10.427 80.446,12.368C80.446,14.352 78.433,16.161 75.719,18.306L80.489,18.306L80.489,19.385L73.808,19.385L73.808,19.384Z" style="fill:white;fill-rule:nonzero;"/>
            <path d="M82.479,14.527C82.479,12.149 83.528,9.508 86.199,9.508C88.853,9.508 89.919,12.149 89.919,14.527C89.919,16.89 88.854,19.56 86.199,19.56C83.528,19.56 82.479,16.89 82.479,14.527ZM88.678,14.527C88.678,12.587 88.051,10.589 86.199,10.589C84.346,10.589 83.719,12.588 83.719,14.527C83.719,16.466 84.346,18.48 86.199,18.48C88.051,18.48 88.678,16.467 88.678,14.527Z" style="fill:white;fill-rule:nonzero;"/>
            <path d="M93.411,19.384L93.411,11.259L91.85,12.907L91.121,12.163L93.557,9.654L94.622,9.654L94.622,19.384L93.411,19.384Z" style="fill:white;fill-rule:nonzero;"/>
            <path d="M96.871,17.999L97.615,17.196C98.257,18.013 99.103,18.48 100.3,18.48C101.627,18.48 102.546,17.576 102.546,16.395C102.546,15.11 101.627,14.293 100.315,14.293C99.455,14.293 98.725,14.571 98.068,15.212L97.178,14.905L97.178,9.654L103.13,9.654L103.13,10.734L98.389,10.734L98.389,14.119C98.855,13.651 99.687,13.242 100.665,13.242C102.284,13.242 103.758,14.351 103.758,16.35C103.758,18.333 102.256,19.56 100.3,19.56C98.651,19.56 97.601,18.961 96.871,17.999Z" style="fill:white;fill-rule:nonzero;"/>
            <path d="M106.039,21.237L105.499,20.785C105.966,20.479 106.389,19.91 106.447,19.428C106.417,19.443 106.316,19.458 106.243,19.458C105.834,19.458 105.542,19.151 105.542,18.714C105.542,18.291 105.877,17.926 106.315,17.926C106.796,17.926 107.234,18.334 107.234,19.035C107.234,19.924 106.709,20.756 106.039,21.237Z" style="fill:white;fill-rule:nonzero;"/>
            <path d="M121.536,19.384L121.536,11.375L118.224,19.384L117.728,19.384L114.431,11.375L114.431,19.384L113.22,19.384L113.22,9.654L114.956,9.654L117.976,16.977L121.01,9.654L122.746,9.654L122.746,19.384L121.536,19.384Z" style="fill:white;fill-rule:nonzero;"/>
            <path d="M125.175,15.606L125.175,9.654L126.386,9.654L126.386,15.577C126.386,17.357 127.348,18.48 129.143,18.48C130.938,18.48 131.9,17.357 131.9,15.577L131.9,9.654L133.111,9.654L133.111,15.592C133.111,18.013 131.784,19.56 129.143,19.56C126.502,19.56 125.175,17.999 125.175,15.606Z" style="fill:white;fill-rule:nonzero;"/>
            <path d="M142.424,19.384L136.75,11.624L136.75,19.384L135.539,19.384L135.539,9.654L136.779,9.654L142.381,17.255L142.381,9.654L143.592,9.654L143.592,19.384L142.424,19.384Z" style="fill:white;fill-rule:nonzero;"/>
            <rect x="146.02" y="9.654" width="1.211" height="9.73" style="fill:white;fill-rule:nonzero;"/>
            <path d="M149.261,14.527C149.261,11.536 151.464,9.494 154.265,9.494C155.987,9.494 157.182,10.326 157.956,11.42L156.935,11.989C156.38,11.172 155.374,10.574 154.265,10.574C152.135,10.574 150.515,12.207 150.515,14.527C150.515,16.832 152.135,18.48 154.265,18.48C155.374,18.48 156.38,17.897 156.935,17.065L157.971,17.633C157.154,18.741 155.987,19.559 154.265,19.559C151.463,19.56 149.261,17.518 149.261,14.527Z" style="fill:white;fill-rule:nonzero;"/>
            <path d="M166.569,19.384L166.569,14.92L160.88,14.92L160.88,19.384L159.669,19.384L159.669,9.654L160.88,9.654L160.88,13.84L166.569,13.84L166.569,9.654L167.779,9.654L167.779,19.384L166.569,19.384Z" style="fill:white;fill-rule:nonzero;"/>
        </g>
        <path d="M7.025,36.901L7.025,35.939C10.526,33.181 12.422,31.562 12.422,29.885C12.422,28.644 11.401,28.104 10.395,28.104C9.228,28.104 8.323,28.6 7.755,29.33L7.01,28.558C7.755,27.58 9.023,27.027 10.395,27.027C12.014,27.027 13.663,27.946 13.663,29.886C13.663,31.868 11.65,33.678 8.936,35.823L13.707,35.823L13.707,36.902L7.025,36.902L7.025,36.901ZM17.563,36.901L17.563,28.775L16.002,30.424L15.273,29.68L17.709,27.171L18.774,27.171L18.774,36.9L17.563,36.9L17.563,36.901ZM20.937,36.244C20.937,35.806 21.302,35.442 21.739,35.442C22.176,35.442 22.542,35.806 22.542,36.244C22.542,36.683 22.177,37.048 21.739,37.048C21.301,37.048 20.937,36.683 20.937,36.244ZM27.915,32.408L27.915,31.445L35.69,31.445L35.69,32.408L27.915,32.408ZM40.979,36.901L40.979,35.939C44.48,33.181 46.376,31.562 46.376,29.885C46.376,28.644 45.355,28.104 44.348,28.104C43.182,28.104 42.277,28.6 41.708,29.33L40.963,28.558C41.708,27.58 42.977,27.027 44.347,27.027C45.967,27.027 47.615,27.946 47.615,29.886C47.615,31.868 45.602,33.678 42.888,35.823L47.659,35.823L47.659,36.902L40.979,36.902L40.979,36.901ZM49.708,36.901L49.708,35.939C53.209,33.181 55.105,31.562 55.105,29.885C55.105,28.644 54.084,28.104 53.077,28.104C51.911,28.104 51.006,28.6 50.437,29.33L49.693,28.558C50.437,27.58 51.706,27.027 53.077,27.027C54.697,27.027 56.345,27.946 56.345,29.886C56.345,31.868 54.332,33.678 51.618,35.823L56.389,35.823L56.389,36.902L49.708,36.902L49.708,36.901ZM58.524,36.244C58.524,35.806 58.889,35.442 59.326,35.442C59.764,35.442 60.129,35.806 60.129,36.244C60.129,36.683 59.764,37.048 59.326,37.048C58.889,37.047 58.524,36.683 58.524,36.244ZM73.088,36.901L67.413,29.14L67.413,36.901L66.203,36.901L66.203,27.172L67.443,27.172L73.045,34.771L73.045,27.172L74.255,27.172L74.255,36.901L73.088,36.901L73.088,36.901ZM76.29,32.042C76.29,29.169 78.23,27.01 81.119,27.01C83.993,27.01 85.948,29.169 85.948,32.042C85.948,34.916 83.993,37.076 81.119,37.076C78.229,37.077 76.29,34.917 76.29,32.042ZM84.692,32.042C84.692,29.767 83.292,28.089 81.118,28.089C78.929,28.089 77.544,29.767 77.544,32.042C77.544,34.305 78.929,35.996 81.118,35.996C83.292,35.997 84.692,34.305 84.692,32.042ZM90.607,36.901L86.697,27.172L88.083,27.172L91.365,35.574L94.648,27.172L96.034,27.172L92.11,36.901L90.607,36.901ZM101.017,36.901L101.017,35.939C104.518,33.181 106.415,31.562 106.415,29.885C106.415,28.644 105.394,28.104 104.387,28.104C103.22,28.104 102.316,28.6 101.747,29.33L101.003,28.558C101.747,27.58 103.016,27.027 104.387,27.027C106.006,27.027 107.655,27.946 107.655,29.886C107.655,31.868 105.641,33.678 102.928,35.823L107.698,35.823L107.698,36.902L101.017,36.902L101.017,36.901ZM109.703,32.042C109.703,29.664 110.753,27.025 113.423,27.025C116.078,27.025 117.143,29.664 117.143,32.042C117.143,34.406 116.078,37.076 113.423,37.076C110.753,37.077 109.703,34.407 109.703,32.042ZM115.903,32.042C115.903,30.103 115.276,28.104 113.423,28.104C111.57,28.104 110.943,30.103 110.943,32.042C110.943,33.983 111.57,35.996 113.423,35.996C115.276,35.996 115.903,33.984 115.903,32.042ZM120.635,36.901L120.635,28.775L119.074,30.424L118.345,29.68L120.782,27.171L121.845,27.171L121.845,36.9L120.635,36.9L120.635,36.901ZM124.096,35.516L124.84,34.713C125.482,35.53 126.327,35.996 127.524,35.996C128.852,35.996 129.771,35.091 129.771,33.91C129.771,32.627 128.852,31.809 127.539,31.809C126.678,31.809 125.95,32.087 125.293,32.728L124.402,32.421L124.402,27.17L130.354,27.17L130.354,28.249L125.613,28.249L125.613,31.634C126.08,31.166 126.911,30.759 127.889,30.759C129.508,30.759 130.981,31.866 130.981,33.865C130.981,35.849 129.479,37.075 127.523,37.075C125.875,37.077 124.824,36.478 124.096,35.516Z" style="fill:white;fill-rule:nonzero;"/>
        <g>
            <path d="M7.381,81.346L10.711,81.346L10.711,62.406L7.381,62.406L7.381,56.994L22.2,56.994C23.907,56.994 25.697,57.036 27.195,57.66C30.733,58.992 32.94,62.614 32.94,67.026C32.94,71.355 30.609,75.309 27.07,76.516C25.696,76.974 24.198,77.141 22.408,77.141L18.162,77.141L18.162,81.346L21.492,81.346L21.492,86.757L7.381,86.757L7.381,81.346ZM21.326,71.314C22.492,71.314 23.158,71.147 23.949,70.69C25.073,69.982 25.531,68.65 25.531,67.027C25.531,65.403 25.031,64.154 24.074,63.488C23.366,63.03 22.492,62.822 21.452,62.822L18.163,62.822L18.163,71.314L21.326,71.314Z" style="fill:white;fill-rule:nonzero;"/>
            <path d="M50.755,56.495C59.871,56.495 66.406,63.155 66.406,71.689C66.406,80.43 59.871,87.257 50.755,87.257C41.639,87.257 35.104,80.43 35.104,71.689C35.104,63.155 41.639,56.495 50.755,56.495ZM50.755,80.805C55.126,80.805 58.706,76.892 58.706,71.689C58.706,66.694 55.126,62.947 50.755,62.947C46.384,62.947 42.805,66.694 42.805,71.689C42.805,76.892 46.384,80.805 50.755,80.805Z" style="fill:white;fill-rule:nonzero;"/>
            <path d="M67.238,56.995L80.433,56.995L80.433,62.407L76.978,62.407L79.725,75.602C79.892,76.31 79.975,77.101 80.017,77.725L80.1,78.724L80.267,78.724L80.392,77.725C80.517,77.1 80.6,76.309 80.767,75.602L85.346,56.995L91.09,56.995L95.669,75.602C95.877,76.31 95.919,77.101 96.044,77.725L96.169,78.724L96.336,78.724L96.419,77.725C96.461,77.1 96.586,76.309 96.711,75.602L99.458,62.407L96.003,62.407L96.003,56.995L109.198,56.995L109.198,62.407L106.7,62.407L100.789,86.758L92.589,86.758L88.8,71.522C88.634,70.731 88.55,69.94 88.425,69.316L88.3,68.234L88.133,68.234L88.008,69.316C87.883,69.941 87.841,70.732 87.633,71.522L83.845,86.757L75.645,86.757L69.734,62.406L67.236,62.406L67.236,56.995L67.238,56.995Z" style="fill:white;fill-rule:nonzero;"/>
            <path d="M112.942,81.346L116.272,81.346L116.272,62.406L112.942,62.406L112.942,56.994L135.878,56.994L135.878,65.777L129.634,65.777L129.634,62.821L123.723,62.821L123.723,68.857L132.423,68.857L132.423,74.685L123.723,74.685L123.723,80.929L130.134,80.929L130.134,77.973L136.378,77.973L136.378,86.756L112.942,86.756L112.942,81.346L112.942,81.346Z" style="fill:white;fill-rule:nonzero;"/>
            <path d="M140.373,81.346L143.703,81.346L143.703,62.406L140.373,62.406L140.373,56.994L153.818,56.994C156.108,56.994 158.064,57.077 159.771,57.577C163.392,58.701 165.723,61.573 165.723,65.944C165.723,69.899 163.892,72.479 160.895,74.103L160.895,74.186C161.103,74.311 161.353,74.436 161.561,74.603C161.936,74.895 162.393,75.311 162.726,75.977L165.016,80.39C165.391,81.098 165.974,81.348 166.931,81.348L167.972,81.348L167.972,86.759L163.06,86.759C160.687,86.759 159.688,86.176 158.856,84.553L155.235,77.601C154.735,76.643 154.194,76.31 152.654,76.31L151.155,76.31L151.155,81.347L154.277,81.347L154.277,86.758L140.374,86.758L140.374,81.346L140.373,81.346ZM154.525,70.481C156.856,70.481 158.313,69.315 158.313,66.61C158.313,65.236 157.98,63.946 156.689,63.321C156.023,62.988 155.065,62.821 153.817,62.821L151.153,62.821L151.153,70.48L154.525,70.48L154.525,70.481Z" style="fill:white;fill-rule:nonzero;"/>
            <path d="M183.996,62.406L180.666,62.406L180.666,56.994L194.777,56.994L194.777,62.406L191.447,62.406L191.447,75.393C191.447,76.725 191.739,77.891 192.197,78.682C192.988,80.014 194.612,80.805 196.651,80.805C198.608,80.805 200.023,80.18 200.98,78.724C201.522,77.849 201.771,76.767 201.771,75.394L201.771,62.406L198.441,62.406L198.441,56.994L212.552,56.994L212.552,62.406L209.222,62.406L209.222,75.393C209.222,78.39 208.306,81.179 206.766,83.135C204.435,85.966 200.564,87.256 196.61,87.256C192.322,87.256 188.659,85.757 186.495,83.26C184.705,81.262 183.997,78.556 183.997,75.393L183.997,62.406L183.996,62.406Z" style="fill:white;fill-rule:nonzero;"/>
            <path d="M216.338,81.346L219.668,81.346L219.668,62.406L216.338,62.406L216.338,56.994L231.156,56.994C232.863,56.994 234.653,57.036 236.151,57.66C239.689,58.992 241.895,62.614 241.895,67.026C241.895,71.355 239.564,75.309 236.026,76.516C234.653,76.974 233.154,77.141 231.364,77.141L227.118,77.141L227.118,81.346L230.448,81.346L230.448,86.757L216.338,86.757L216.338,81.346L216.338,81.346ZM230.282,71.314C231.448,71.314 232.114,71.147 232.904,70.69C234.028,69.982 234.486,68.65 234.486,67.027C234.486,65.403 233.987,64.154 233.029,63.488C232.322,63.03 231.448,62.822 230.407,62.822L227.118,62.822L227.118,71.314L230.282,71.314Z" style="fill:white;fill-rule:nonzero;"/>
        </g>
        <g>
            <path d="M14.333,122.972L17.663,122.972L17.663,116.187L10.378,104.031L7.838,104.031L7.838,98.621L20.16,98.621L20.16,104.031L17.663,104.031L20.702,109.527C20.994,109.984 21.077,110.275 21.202,110.568C21.285,110.691 21.327,110.859 21.369,110.984L21.452,110.984C21.494,110.859 21.535,110.691 21.619,110.568L22.119,109.527L25.158,104.031L22.661,104.031L22.661,98.621L34.94,98.621L34.94,104.031L32.401,104.031L25.116,116.187L25.116,122.972L28.446,122.972L28.446,128.382L14.333,128.382L14.333,122.972Z" style="fill:white;fill-rule:nonzero;"/>
            <path d="M52.42,98.12C61.536,98.12 68.071,104.78 68.071,113.313C68.071,122.055 61.535,128.881 52.42,128.881C43.304,128.881 36.769,122.055 36.769,113.313C36.769,104.78 43.304,98.12 52.42,98.12ZM52.42,122.431C56.791,122.431 60.37,118.517 60.37,113.314C60.37,108.32 56.79,104.574 52.42,104.574C48.049,104.574 44.469,108.32 44.469,113.314C44.469,118.517 48.049,122.431 52.42,122.431Z" style="fill:white;fill-rule:nonzero;"/>
            <path d="M73.148,104.03L69.818,104.03L69.818,98.62L83.93,98.62L83.93,104.03L80.6,104.03L80.6,117.018C80.6,118.35 80.891,119.516 81.349,120.307C82.14,121.639 83.763,122.43 85.803,122.43C87.759,122.43 89.175,121.805 90.132,120.348C90.673,119.473 90.923,118.391 90.923,117.018L90.923,104.03L87.593,104.03L87.593,98.62L101.704,98.62L101.704,104.03L98.374,104.03L98.374,117.018C98.374,120.014 97.458,122.803 95.918,124.76C93.587,127.59 89.715,128.881 85.761,128.881C81.474,128.881 77.811,127.383 75.646,124.885C73.856,122.887 73.148,120.182 73.148,117.018L73.148,104.03L73.148,104.03Z" style="fill:white;fill-rule:nonzero;"/>
            <path d="M105.49,122.972L108.82,122.972L108.82,104.03L105.49,104.03L105.49,98.62L118.935,98.62C121.225,98.62 123.181,98.702 124.888,99.202C128.51,100.327 130.841,103.198 130.841,107.569C130.841,111.524 129.009,114.104 126.012,115.727L126.012,115.811C126.22,115.936 126.47,116.061 126.678,116.227C127.053,116.518 127.511,116.934 127.844,117.6L130.133,122.012C130.508,122.721 131.091,122.971 132.048,122.971L133.089,122.971L133.089,128.381L128.177,128.381C125.804,128.381 124.805,127.799 123.972,126.176L120.35,119.225C119.851,118.266 119.309,117.934 117.769,117.934L116.27,117.934L116.27,122.971L119.392,122.971L119.392,128.381L105.49,128.381L105.49,122.972ZM119.643,112.106C121.974,112.106 123.431,110.94 123.431,108.235C123.431,106.862 123.098,105.571 121.807,104.946C121.141,104.614 120.184,104.448 118.935,104.448L116.271,104.448L116.271,112.106L119.643,112.106Z" style="fill:white;fill-rule:nonzero;"/>
        </g>
        <g>
            <path d="M7.922,140.245L21.117,140.245L21.117,145.655L17.662,145.655L20.409,158.852C20.576,159.559 20.659,160.35 20.701,160.973L20.784,161.973L20.951,161.973L21.076,160.973C21.201,160.35 21.284,159.559 21.451,158.852L26.03,140.245L31.774,140.245L36.353,158.852C36.561,159.559 36.603,160.35 36.728,160.973L36.853,161.973L37.02,161.973L37.103,160.973C37.145,160.35 37.27,159.559 37.395,158.852L40.142,145.655L36.687,145.655L36.687,140.245L49.882,140.245L49.882,145.655L47.384,145.655L41.473,170.007L33.273,170.007L29.485,154.773C29.319,153.982 29.235,153.191 29.11,152.566L28.985,151.484L28.818,151.484L28.693,152.566C28.568,153.191 28.526,153.982 28.318,154.773L24.53,170.007L16.33,170.007L10.419,145.655L7.922,145.655L7.922,140.245Z" style="fill:white;fill-rule:nonzero;"/>
            <path d="M66.53,139.745C75.646,139.745 82.181,146.405 82.181,154.938C82.181,163.68 75.646,170.506 66.53,170.506C57.414,170.506 50.879,163.68 50.879,154.938C50.879,146.405 57.415,139.745 66.53,139.745ZM66.53,164.056C70.901,164.056 74.481,160.142 74.481,154.939C74.481,149.945 70.901,146.199 66.53,146.199C62.159,146.199 58.58,149.945 58.58,154.939C58.58,160.142 62.16,164.056 66.53,164.056Z" style="fill:white;fill-rule:nonzero;"/>
            <path d="M84.845,164.597L88.175,164.597L88.175,145.656L84.845,145.656L84.845,140.246L98.29,140.246C100.58,140.246 102.536,140.328 104.243,140.828C107.865,141.953 110.196,144.824 110.196,149.195C110.196,153.15 108.364,155.73 105.367,157.353L105.367,157.437C105.575,157.562 105.825,157.687 106.033,157.853C106.408,158.144 106.866,158.56 107.199,159.226L109.488,163.638C109.863,164.347 110.446,164.597 111.403,164.597L112.444,164.597L112.444,170.007L107.532,170.007C105.159,170.007 104.16,169.425 103.327,167.802L99.705,160.851C99.206,159.892 98.664,159.56 97.124,159.56L95.625,159.56L95.625,164.597L98.747,164.597L98.747,170.007L84.845,170.007L84.845,164.597ZM98.998,153.731C101.329,153.731 102.786,152.565 102.786,149.86C102.786,148.487 102.453,147.196 101.162,146.571C100.496,146.239 99.539,146.073 98.29,146.073L95.626,146.073L95.626,153.731L98.998,153.731Z" style="fill:white;fill-rule:nonzero;"/>
            <path d="M115.647,164.597L118.977,164.597L118.977,145.656L115.647,145.656L115.647,140.246L128.593,140.246L128.593,145.656L126.428,145.656L126.428,151.943L128.926,151.943L133.297,145.656L131.049,145.656L131.049,140.246L143.287,140.246L143.287,145.656L140.789,145.656L134.462,154.191L134.462,154.273C134.67,154.398 134.92,154.564 135.212,154.814C135.67,155.273 136.253,155.896 136.752,156.937L140.124,163.638C140.457,164.263 141.082,164.597 141.956,164.597L143.247,164.597L143.247,170.007L138.169,170.007C135.671,170.007 134.755,169.3 133.964,167.802L129.51,158.728C129.135,157.937 128.552,157.769 127.428,157.769L126.429,157.769L126.429,164.597L129.551,164.597L129.551,170.007L115.648,170.007L115.648,164.597L115.647,164.597Z" style="fill:white;fill-rule:nonzero;"/>
            <path d="M147.323,164.597L150.653,164.597L150.653,145.656L147.323,145.656L147.323,140.246L169.51,140.246L169.51,149.029L163.266,149.029L163.266,146.49L158.104,146.49L158.104,152.941L166.845,152.941L166.845,158.769L158.104,158.769L158.104,164.597L161.85,164.597L161.85,170.007L147.323,170.007L147.323,164.597L147.323,164.597Z" style="fill:white;fill-rule:nonzero;"/>
            <path d="M172.631,164.597L175.961,164.597L175.961,146.074L172.631,146.074L172.631,140.246L186.742,140.246L186.742,146.074L183.412,146.074L183.412,164.181L189.823,164.181L189.823,159.81L196.067,159.81L196.067,170.007L172.631,170.007L172.631,164.597L172.631,164.597Z" style="fill:white;fill-rule:nonzero;"/>
            <path d="M213.631,139.745C222.747,139.745 229.282,146.405 229.282,154.938C229.282,163.68 222.747,170.506 213.631,170.506C204.515,170.506 197.98,163.68 197.98,154.938C197.979,146.405 204.515,139.745 213.631,139.745ZM213.631,164.056C218.002,164.056 221.582,160.142 221.582,154.939C221.582,149.945 218.002,146.199 213.631,146.199C209.261,146.199 205.681,149.945 205.681,154.939C205.681,160.142 209.261,164.056 213.631,164.056Z" style="fill:white;fill-rule:nonzero;"/>
            <path d="M231.03,140.245L244.225,140.245L244.225,145.655L240.77,145.655L243.517,158.852C243.684,159.559 243.767,160.35 243.808,160.973L243.892,161.973L244.058,161.973L244.183,160.973C244.308,160.35 244.391,159.559 244.558,158.852L249.136,140.245L254.881,140.245L259.459,158.852C259.668,159.559 259.709,160.35 259.834,160.973L259.959,161.973L260.125,161.973L260.209,160.973C260.25,160.35 260.375,159.559 260.5,158.852L263.247,145.655L259.792,145.655L259.792,140.245L272.988,140.245L272.988,145.655L270.49,145.655L264.579,170.007L256.379,170.007L252.591,154.773C252.425,153.982 252.342,153.191 252.217,152.566L252.092,151.484L251.925,151.484L251.8,152.566C251.676,153.191 251.634,153.982 251.426,154.773L247.638,170.007L239.438,170.007L233.527,145.655L231.03,145.655L231.03,140.245L231.03,140.245Z" style="fill:white;fill-rule:nonzero;"/>
        </g>
    </g>
</svg>
